<mxfile host="app.diagrams.net" agent="Mozilla/5.0 (X11; Linux x86_64; rv:133.0) Gecko/20100101 Firefox/133.0" version="26.0.11">
  <diagram name="第 1 页" id="odJ1iZkjm8XhT0lh8Itr">
    <mxGraphModel dx="1488" dy="774" grid="1" gridSize="10" guides="1" tooltips="1" connect="1" arrows="1" fold="1" page="1" pageScale="1" pageWidth="827" pageHeight="1169" math="0" shadow="0">
      <root>
        <mxCell id="0" />
        <mxCell id="1" parent="0" />
        <mxCell id="98H9lZZ7wIg3jAL6WraC-18" value="" style="shape=table;startSize=0;container=1;collapsible=0;childLayout=tableLayout;" parent="1" vertex="1">
          <mxGeometry x="250" y="208" width="184" height="160" as="geometry" />
        </mxCell>
        <mxCell id="98H9lZZ7wIg3jAL6WraC-19" value="" style="shape=tableRow;horizontal=0;startSize=0;swimlaneHead=0;swimlaneBody=0;strokeColor=#b46504;top=0;left=0;bottom=0;right=0;collapsible=0;dropTarget=0;fillColor=#fad7ac;points=[[0,0.5],[1,0.5]];portConstraint=eastwest;swimlaneLine=1;sketch=1;curveFitting=1;jiggle=2;" parent="98H9lZZ7wIg3jAL6WraC-18" vertex="1">
          <mxGeometry width="184" height="18" as="geometry" />
        </mxCell>
        <mxCell id="98H9lZZ7wIg3jAL6WraC-20" value="" style="shape=partialRectangle;html=1;whiteSpace=wrap;connectable=0;strokeColor=#b46504;overflow=hidden;fillColor=#fad7ac;top=0;left=0;bottom=0;right=0;pointerEvents=1;fillStyle=dashed;swimlaneLine=1;sketch=1;curveFitting=1;jiggle=2;" parent="98H9lZZ7wIg3jAL6WraC-19" vertex="1">
          <mxGeometry width="20" height="18" as="geometry">
            <mxRectangle width="20" height="18" as="alternateBounds" />
          </mxGeometry>
        </mxCell>
        <mxCell id="98H9lZZ7wIg3jAL6WraC-21" value="" style="shape=partialRectangle;html=1;whiteSpace=wrap;connectable=0;strokeColor=#b46504;overflow=hidden;fillColor=#fad7ac;top=0;left=0;bottom=0;right=0;pointerEvents=1;swimlaneLine=1;sketch=1;curveFitting=1;jiggle=2;" parent="98H9lZZ7wIg3jAL6WraC-19" vertex="1">
          <mxGeometry x="20" width="21" height="18" as="geometry">
            <mxRectangle width="21" height="18" as="alternateBounds" />
          </mxGeometry>
        </mxCell>
        <mxCell id="98H9lZZ7wIg3jAL6WraC-22" value="" style="shape=partialRectangle;html=1;whiteSpace=wrap;connectable=0;strokeColor=#b46504;overflow=hidden;fillColor=#fad7ac;top=0;left=0;bottom=0;right=0;pointerEvents=1;swimlaneLine=1;sketch=1;curveFitting=1;jiggle=2;" parent="98H9lZZ7wIg3jAL6WraC-19" vertex="1">
          <mxGeometry x="41" width="20" height="18" as="geometry">
            <mxRectangle width="20" height="18" as="alternateBounds" />
          </mxGeometry>
        </mxCell>
        <mxCell id="98H9lZZ7wIg3jAL6WraC-23" value="" style="shape=partialRectangle;html=1;whiteSpace=wrap;connectable=0;strokeColor=#b46504;overflow=hidden;fillColor=#fad7ac;top=0;left=0;bottom=0;right=0;pointerEvents=1;swimlaneLine=1;sketch=1;curveFitting=1;jiggle=2;" parent="98H9lZZ7wIg3jAL6WraC-19" vertex="1">
          <mxGeometry x="61" width="21" height="18" as="geometry">
            <mxRectangle width="21" height="18" as="alternateBounds" />
          </mxGeometry>
        </mxCell>
        <mxCell id="98H9lZZ7wIg3jAL6WraC-24" value="" style="shape=partialRectangle;html=1;whiteSpace=wrap;connectable=0;strokeColor=#b46504;overflow=hidden;fillColor=#fad7ac;top=0;left=0;bottom=0;right=0;pointerEvents=1;swimlaneLine=1;sketch=1;curveFitting=1;jiggle=2;" parent="98H9lZZ7wIg3jAL6WraC-19" vertex="1">
          <mxGeometry x="82" width="20" height="18" as="geometry">
            <mxRectangle width="20" height="18" as="alternateBounds" />
          </mxGeometry>
        </mxCell>
        <mxCell id="98H9lZZ7wIg3jAL6WraC-25" value="" style="shape=partialRectangle;html=1;whiteSpace=wrap;connectable=0;strokeColor=#b46504;overflow=hidden;fillColor=#fad7ac;top=0;left=0;bottom=0;right=0;pointerEvents=1;swimlaneLine=1;sketch=1;curveFitting=1;jiggle=2;" parent="98H9lZZ7wIg3jAL6WraC-19" vertex="1">
          <mxGeometry x="102" width="21" height="18" as="geometry">
            <mxRectangle width="21" height="18" as="alternateBounds" />
          </mxGeometry>
        </mxCell>
        <mxCell id="98H9lZZ7wIg3jAL6WraC-26" value="" style="shape=partialRectangle;html=1;whiteSpace=wrap;connectable=0;strokeColor=#b46504;overflow=hidden;fillColor=#fad7ac;top=0;left=0;bottom=0;right=0;pointerEvents=1;swimlaneLine=1;sketch=1;curveFitting=1;jiggle=2;" parent="98H9lZZ7wIg3jAL6WraC-19" vertex="1">
          <mxGeometry x="123" width="20" height="18" as="geometry">
            <mxRectangle width="20" height="18" as="alternateBounds" />
          </mxGeometry>
        </mxCell>
        <mxCell id="98H9lZZ7wIg3jAL6WraC-27" value="" style="shape=partialRectangle;html=1;whiteSpace=wrap;connectable=0;strokeColor=#b46504;overflow=hidden;fillColor=#fad7ac;top=0;left=0;bottom=0;right=0;pointerEvents=1;swimlaneLine=1;sketch=1;curveFitting=1;jiggle=2;" parent="98H9lZZ7wIg3jAL6WraC-19" vertex="1">
          <mxGeometry x="143" width="21" height="18" as="geometry">
            <mxRectangle width="21" height="18" as="alternateBounds" />
          </mxGeometry>
        </mxCell>
        <mxCell id="98H9lZZ7wIg3jAL6WraC-28" value="" style="shape=partialRectangle;html=1;whiteSpace=wrap;connectable=0;strokeColor=#b46504;overflow=hidden;fillColor=#fad7ac;top=0;left=0;bottom=0;right=0;pointerEvents=1;swimlaneLine=1;sketch=1;curveFitting=1;jiggle=2;" parent="98H9lZZ7wIg3jAL6WraC-19" vertex="1">
          <mxGeometry x="164" width="20" height="18" as="geometry">
            <mxRectangle width="20" height="18" as="alternateBounds" />
          </mxGeometry>
        </mxCell>
        <mxCell id="98H9lZZ7wIg3jAL6WraC-29" value="" style="shape=tableRow;horizontal=0;startSize=0;swimlaneHead=0;swimlaneBody=0;strokeColor=#b46504;top=0;left=0;bottom=0;right=0;collapsible=0;dropTarget=0;fillColor=#fad7ac;points=[[0,0.5],[1,0.5]];portConstraint=eastwest;swimlaneLine=1;sketch=1;curveFitting=1;jiggle=2;" parent="98H9lZZ7wIg3jAL6WraC-18" vertex="1">
          <mxGeometry y="18" width="184" height="18" as="geometry" />
        </mxCell>
        <mxCell id="98H9lZZ7wIg3jAL6WraC-30" value="" style="shape=partialRectangle;html=1;whiteSpace=wrap;connectable=0;strokeColor=#b46504;overflow=hidden;fillColor=#fad7ac;top=0;left=0;bottom=0;right=0;pointerEvents=1;swimlaneLine=1;sketch=1;curveFitting=1;jiggle=2;" parent="98H9lZZ7wIg3jAL6WraC-29" vertex="1">
          <mxGeometry width="20" height="18" as="geometry">
            <mxRectangle width="20" height="18" as="alternateBounds" />
          </mxGeometry>
        </mxCell>
        <mxCell id="98H9lZZ7wIg3jAL6WraC-31" value="" style="shape=partialRectangle;html=1;whiteSpace=wrap;connectable=0;strokeColor=#b46504;overflow=hidden;fillColor=#fad7ac;top=0;left=0;bottom=0;right=0;pointerEvents=1;swimlaneLine=1;sketch=1;curveFitting=1;jiggle=2;" parent="98H9lZZ7wIg3jAL6WraC-29" vertex="1">
          <mxGeometry x="20" width="21" height="18" as="geometry">
            <mxRectangle width="21" height="18" as="alternateBounds" />
          </mxGeometry>
        </mxCell>
        <mxCell id="98H9lZZ7wIg3jAL6WraC-32" value="" style="shape=partialRectangle;html=1;whiteSpace=wrap;connectable=0;strokeColor=#b46504;overflow=hidden;fillColor=#fad7ac;top=0;left=0;bottom=0;right=0;pointerEvents=1;swimlaneLine=1;sketch=1;curveFitting=1;jiggle=2;" parent="98H9lZZ7wIg3jAL6WraC-29" vertex="1">
          <mxGeometry x="41" width="20" height="18" as="geometry">
            <mxRectangle width="20" height="18" as="alternateBounds" />
          </mxGeometry>
        </mxCell>
        <mxCell id="98H9lZZ7wIg3jAL6WraC-33" value="" style="shape=partialRectangle;html=1;whiteSpace=wrap;connectable=0;strokeColor=#b46504;overflow=hidden;fillColor=#fad7ac;top=0;left=0;bottom=0;right=0;pointerEvents=1;swimlaneLine=1;sketch=1;curveFitting=1;jiggle=2;" parent="98H9lZZ7wIg3jAL6WraC-29" vertex="1">
          <mxGeometry x="61" width="21" height="18" as="geometry">
            <mxRectangle width="21" height="18" as="alternateBounds" />
          </mxGeometry>
        </mxCell>
        <mxCell id="98H9lZZ7wIg3jAL6WraC-34" value="" style="shape=partialRectangle;html=1;whiteSpace=wrap;connectable=0;strokeColor=#b46504;overflow=hidden;fillColor=#fad7ac;top=0;left=0;bottom=0;right=0;pointerEvents=1;swimlaneLine=1;sketch=1;curveFitting=1;jiggle=2;" parent="98H9lZZ7wIg3jAL6WraC-29" vertex="1">
          <mxGeometry x="82" width="20" height="18" as="geometry">
            <mxRectangle width="20" height="18" as="alternateBounds" />
          </mxGeometry>
        </mxCell>
        <mxCell id="98H9lZZ7wIg3jAL6WraC-35" value="" style="shape=partialRectangle;html=1;whiteSpace=wrap;connectable=0;strokeColor=#b46504;overflow=hidden;fillColor=#fad7ac;top=0;left=0;bottom=0;right=0;pointerEvents=1;swimlaneLine=1;sketch=1;curveFitting=1;jiggle=2;" parent="98H9lZZ7wIg3jAL6WraC-29" vertex="1">
          <mxGeometry x="102" width="21" height="18" as="geometry">
            <mxRectangle width="21" height="18" as="alternateBounds" />
          </mxGeometry>
        </mxCell>
        <mxCell id="98H9lZZ7wIg3jAL6WraC-36" value="" style="shape=partialRectangle;html=1;whiteSpace=wrap;connectable=0;strokeColor=#b46504;overflow=hidden;fillColor=#fad7ac;top=0;left=0;bottom=0;right=0;pointerEvents=1;swimlaneLine=1;sketch=1;curveFitting=1;jiggle=2;" parent="98H9lZZ7wIg3jAL6WraC-29" vertex="1">
          <mxGeometry x="123" width="20" height="18" as="geometry">
            <mxRectangle width="20" height="18" as="alternateBounds" />
          </mxGeometry>
        </mxCell>
        <mxCell id="98H9lZZ7wIg3jAL6WraC-37" value="" style="shape=partialRectangle;html=1;whiteSpace=wrap;connectable=0;strokeColor=#b46504;overflow=hidden;fillColor=#fad7ac;top=0;left=0;bottom=0;right=0;pointerEvents=1;swimlaneLine=1;sketch=1;curveFitting=1;jiggle=2;" parent="98H9lZZ7wIg3jAL6WraC-29" vertex="1">
          <mxGeometry x="143" width="21" height="18" as="geometry">
            <mxRectangle width="21" height="18" as="alternateBounds" />
          </mxGeometry>
        </mxCell>
        <mxCell id="98H9lZZ7wIg3jAL6WraC-38" value="" style="shape=partialRectangle;html=1;whiteSpace=wrap;connectable=0;strokeColor=#b46504;overflow=hidden;fillColor=#fad7ac;top=0;left=0;bottom=0;right=0;pointerEvents=1;swimlaneLine=1;sketch=1;curveFitting=1;jiggle=2;" parent="98H9lZZ7wIg3jAL6WraC-29" vertex="1">
          <mxGeometry x="164" width="20" height="18" as="geometry">
            <mxRectangle width="20" height="18" as="alternateBounds" />
          </mxGeometry>
        </mxCell>
        <mxCell id="98H9lZZ7wIg3jAL6WraC-39" value="" style="shape=tableRow;horizontal=0;startSize=0;swimlaneHead=0;swimlaneBody=0;strokeColor=#b46504;top=0;left=0;bottom=0;right=0;collapsible=0;dropTarget=0;fillColor=#fad7ac;points=[[0,0.5],[1,0.5]];portConstraint=eastwest;swimlaneLine=1;sketch=1;curveFitting=1;jiggle=2;" parent="98H9lZZ7wIg3jAL6WraC-18" vertex="1">
          <mxGeometry y="36" width="184" height="17" as="geometry" />
        </mxCell>
        <mxCell id="98H9lZZ7wIg3jAL6WraC-40" value="" style="shape=partialRectangle;html=1;whiteSpace=wrap;connectable=0;strokeColor=#b46504;overflow=hidden;fillColor=#fad7ac;top=0;left=0;bottom=0;right=0;pointerEvents=1;swimlaneLine=1;sketch=1;curveFitting=1;jiggle=2;" parent="98H9lZZ7wIg3jAL6WraC-39" vertex="1">
          <mxGeometry width="20" height="17" as="geometry">
            <mxRectangle width="20" height="17" as="alternateBounds" />
          </mxGeometry>
        </mxCell>
        <mxCell id="98H9lZZ7wIg3jAL6WraC-41" value="" style="shape=partialRectangle;html=1;whiteSpace=wrap;connectable=0;strokeColor=#b46504;overflow=hidden;fillColor=#fad7ac;top=0;left=0;bottom=0;right=0;pointerEvents=1;swimlaneLine=1;sketch=1;curveFitting=1;jiggle=2;" parent="98H9lZZ7wIg3jAL6WraC-39" vertex="1">
          <mxGeometry x="20" width="21" height="17" as="geometry">
            <mxRectangle width="21" height="17" as="alternateBounds" />
          </mxGeometry>
        </mxCell>
        <mxCell id="98H9lZZ7wIg3jAL6WraC-42" value="" style="shape=partialRectangle;html=1;whiteSpace=wrap;connectable=0;strokeColor=#b46504;overflow=hidden;fillColor=#fad7ac;top=0;left=0;bottom=0;right=0;pointerEvents=1;swimlaneLine=1;sketch=1;curveFitting=1;jiggle=2;" parent="98H9lZZ7wIg3jAL6WraC-39" vertex="1">
          <mxGeometry x="41" width="20" height="17" as="geometry">
            <mxRectangle width="20" height="17" as="alternateBounds" />
          </mxGeometry>
        </mxCell>
        <mxCell id="98H9lZZ7wIg3jAL6WraC-43" value="" style="shape=partialRectangle;html=1;whiteSpace=wrap;connectable=0;strokeColor=#b46504;overflow=hidden;fillColor=#fad7ac;top=0;left=0;bottom=0;right=0;pointerEvents=1;swimlaneLine=1;sketch=1;curveFitting=1;jiggle=2;" parent="98H9lZZ7wIg3jAL6WraC-39" vertex="1">
          <mxGeometry x="61" width="21" height="17" as="geometry">
            <mxRectangle width="21" height="17" as="alternateBounds" />
          </mxGeometry>
        </mxCell>
        <mxCell id="98H9lZZ7wIg3jAL6WraC-44" value="" style="shape=partialRectangle;html=1;whiteSpace=wrap;connectable=0;strokeColor=#b46504;overflow=hidden;fillColor=#fad7ac;top=0;left=0;bottom=0;right=0;pointerEvents=1;swimlaneLine=1;sketch=1;curveFitting=1;jiggle=2;" parent="98H9lZZ7wIg3jAL6WraC-39" vertex="1">
          <mxGeometry x="82" width="20" height="17" as="geometry">
            <mxRectangle width="20" height="17" as="alternateBounds" />
          </mxGeometry>
        </mxCell>
        <mxCell id="98H9lZZ7wIg3jAL6WraC-45" value="" style="shape=partialRectangle;html=1;whiteSpace=wrap;connectable=0;strokeColor=#b46504;overflow=hidden;fillColor=#fad7ac;top=0;left=0;bottom=0;right=0;pointerEvents=1;swimlaneLine=1;sketch=1;curveFitting=1;jiggle=2;" parent="98H9lZZ7wIg3jAL6WraC-39" vertex="1">
          <mxGeometry x="102" width="21" height="17" as="geometry">
            <mxRectangle width="21" height="17" as="alternateBounds" />
          </mxGeometry>
        </mxCell>
        <mxCell id="98H9lZZ7wIg3jAL6WraC-46" value="" style="shape=partialRectangle;html=1;whiteSpace=wrap;connectable=0;strokeColor=#b46504;overflow=hidden;fillColor=#fad7ac;top=0;left=0;bottom=0;right=0;pointerEvents=1;swimlaneLine=1;sketch=1;curveFitting=1;jiggle=2;" parent="98H9lZZ7wIg3jAL6WraC-39" vertex="1">
          <mxGeometry x="123" width="20" height="17" as="geometry">
            <mxRectangle width="20" height="17" as="alternateBounds" />
          </mxGeometry>
        </mxCell>
        <mxCell id="98H9lZZ7wIg3jAL6WraC-47" value="" style="shape=partialRectangle;html=1;whiteSpace=wrap;connectable=0;strokeColor=#b46504;overflow=hidden;fillColor=#fad7ac;top=0;left=0;bottom=0;right=0;pointerEvents=1;swimlaneLine=1;sketch=1;curveFitting=1;jiggle=2;" parent="98H9lZZ7wIg3jAL6WraC-39" vertex="1">
          <mxGeometry x="143" width="21" height="17" as="geometry">
            <mxRectangle width="21" height="17" as="alternateBounds" />
          </mxGeometry>
        </mxCell>
        <mxCell id="98H9lZZ7wIg3jAL6WraC-48" value="" style="shape=partialRectangle;html=1;whiteSpace=wrap;connectable=0;strokeColor=#b46504;overflow=hidden;fillColor=#fad7ac;top=0;left=0;bottom=0;right=0;pointerEvents=1;swimlaneLine=1;sketch=1;curveFitting=1;jiggle=2;" parent="98H9lZZ7wIg3jAL6WraC-39" vertex="1">
          <mxGeometry x="164" width="20" height="17" as="geometry">
            <mxRectangle width="20" height="17" as="alternateBounds" />
          </mxGeometry>
        </mxCell>
        <mxCell id="98H9lZZ7wIg3jAL6WraC-49" value="" style="shape=tableRow;horizontal=0;startSize=0;swimlaneHead=0;swimlaneBody=0;strokeColor=inherit;top=0;left=0;bottom=0;right=0;collapsible=0;dropTarget=0;fillColor=none;points=[[0,0.5],[1,0.5]];portConstraint=eastwest;swimlaneLine=0;" parent="98H9lZZ7wIg3jAL6WraC-18" vertex="1">
          <mxGeometry y="53" width="184" height="18" as="geometry" />
        </mxCell>
        <mxCell id="98H9lZZ7wIg3jAL6WraC-50" value="" style="shape=partialRectangle;html=1;whiteSpace=wrap;connectable=0;strokeColor=inherit;overflow=hidden;fillColor=none;top=0;left=0;bottom=0;right=0;pointerEvents=1;swimlaneLine=0;" parent="98H9lZZ7wIg3jAL6WraC-49" vertex="1">
          <mxGeometry width="20" height="18" as="geometry">
            <mxRectangle width="20" height="18" as="alternateBounds" />
          </mxGeometry>
        </mxCell>
        <mxCell id="98H9lZZ7wIg3jAL6WraC-51" value="" style="shape=partialRectangle;html=1;whiteSpace=wrap;connectable=0;strokeColor=inherit;overflow=hidden;fillColor=none;top=0;left=0;bottom=0;right=0;pointerEvents=1;swimlaneLine=0;" parent="98H9lZZ7wIg3jAL6WraC-49" vertex="1">
          <mxGeometry x="20" width="21" height="18" as="geometry">
            <mxRectangle width="21" height="18" as="alternateBounds" />
          </mxGeometry>
        </mxCell>
        <mxCell id="98H9lZZ7wIg3jAL6WraC-52" value="" style="shape=partialRectangle;html=1;whiteSpace=wrap;connectable=0;strokeColor=inherit;overflow=hidden;fillColor=none;top=0;left=0;bottom=0;right=0;pointerEvents=1;swimlaneLine=0;" parent="98H9lZZ7wIg3jAL6WraC-49" vertex="1">
          <mxGeometry x="41" width="20" height="18" as="geometry">
            <mxRectangle width="20" height="18" as="alternateBounds" />
          </mxGeometry>
        </mxCell>
        <mxCell id="98H9lZZ7wIg3jAL6WraC-53" value="" style="shape=partialRectangle;html=1;whiteSpace=wrap;connectable=0;strokeColor=inherit;overflow=hidden;fillColor=none;top=0;left=0;bottom=0;right=0;pointerEvents=1;swimlaneLine=0;" parent="98H9lZZ7wIg3jAL6WraC-49" vertex="1">
          <mxGeometry x="61" width="21" height="18" as="geometry">
            <mxRectangle width="21" height="18" as="alternateBounds" />
          </mxGeometry>
        </mxCell>
        <mxCell id="98H9lZZ7wIg3jAL6WraC-54" value="" style="shape=partialRectangle;html=1;whiteSpace=wrap;connectable=0;strokeColor=inherit;overflow=hidden;fillColor=none;top=0;left=0;bottom=0;right=0;pointerEvents=1;swimlaneLine=0;" parent="98H9lZZ7wIg3jAL6WraC-49" vertex="1">
          <mxGeometry x="82" width="20" height="18" as="geometry">
            <mxRectangle width="20" height="18" as="alternateBounds" />
          </mxGeometry>
        </mxCell>
        <mxCell id="98H9lZZ7wIg3jAL6WraC-55" value="" style="shape=partialRectangle;html=1;whiteSpace=wrap;connectable=0;strokeColor=inherit;overflow=hidden;fillColor=none;top=0;left=0;bottom=0;right=0;pointerEvents=1;swimlaneLine=0;" parent="98H9lZZ7wIg3jAL6WraC-49" vertex="1">
          <mxGeometry x="102" width="21" height="18" as="geometry">
            <mxRectangle width="21" height="18" as="alternateBounds" />
          </mxGeometry>
        </mxCell>
        <mxCell id="98H9lZZ7wIg3jAL6WraC-56" value="" style="shape=partialRectangle;html=1;whiteSpace=wrap;connectable=0;strokeColor=inherit;overflow=hidden;fillColor=none;top=0;left=0;bottom=0;right=0;pointerEvents=1;swimlaneLine=0;" parent="98H9lZZ7wIg3jAL6WraC-49" vertex="1">
          <mxGeometry x="123" width="20" height="18" as="geometry">
            <mxRectangle width="20" height="18" as="alternateBounds" />
          </mxGeometry>
        </mxCell>
        <mxCell id="98H9lZZ7wIg3jAL6WraC-57" value="" style="shape=partialRectangle;html=1;whiteSpace=wrap;connectable=0;strokeColor=inherit;overflow=hidden;fillColor=none;top=0;left=0;bottom=0;right=0;pointerEvents=1;swimlaneLine=0;" parent="98H9lZZ7wIg3jAL6WraC-49" vertex="1">
          <mxGeometry x="143" width="21" height="18" as="geometry">
            <mxRectangle width="21" height="18" as="alternateBounds" />
          </mxGeometry>
        </mxCell>
        <mxCell id="98H9lZZ7wIg3jAL6WraC-58" value="" style="shape=partialRectangle;html=1;whiteSpace=wrap;connectable=0;strokeColor=inherit;overflow=hidden;fillColor=none;top=0;left=0;bottom=0;right=0;pointerEvents=1;swimlaneLine=0;" parent="98H9lZZ7wIg3jAL6WraC-49" vertex="1">
          <mxGeometry x="164" width="20" height="18" as="geometry">
            <mxRectangle width="20" height="18" as="alternateBounds" />
          </mxGeometry>
        </mxCell>
        <mxCell id="98H9lZZ7wIg3jAL6WraC-59" value="" style="shape=tableRow;horizontal=0;startSize=0;swimlaneHead=0;swimlaneBody=0;strokeColor=inherit;top=0;left=0;bottom=0;right=0;collapsible=0;dropTarget=0;fillColor=none;points=[[0,0.5],[1,0.5]];portConstraint=eastwest;swimlaneLine=0;" parent="98H9lZZ7wIg3jAL6WraC-18" vertex="1">
          <mxGeometry y="71" width="184" height="18" as="geometry" />
        </mxCell>
        <mxCell id="98H9lZZ7wIg3jAL6WraC-60" value="" style="shape=partialRectangle;html=1;whiteSpace=wrap;connectable=0;strokeColor=inherit;overflow=hidden;fillColor=none;top=0;left=0;bottom=0;right=0;pointerEvents=1;swimlaneLine=0;" parent="98H9lZZ7wIg3jAL6WraC-59" vertex="1">
          <mxGeometry width="20" height="18" as="geometry">
            <mxRectangle width="20" height="18" as="alternateBounds" />
          </mxGeometry>
        </mxCell>
        <mxCell id="98H9lZZ7wIg3jAL6WraC-61" value="" style="shape=partialRectangle;html=1;whiteSpace=wrap;connectable=0;strokeColor=inherit;overflow=hidden;fillColor=none;top=0;left=0;bottom=0;right=0;pointerEvents=1;swimlaneLine=0;" parent="98H9lZZ7wIg3jAL6WraC-59" vertex="1">
          <mxGeometry x="20" width="21" height="18" as="geometry">
            <mxRectangle width="21" height="18" as="alternateBounds" />
          </mxGeometry>
        </mxCell>
        <mxCell id="98H9lZZ7wIg3jAL6WraC-62" value="" style="shape=partialRectangle;html=1;whiteSpace=wrap;connectable=0;strokeColor=inherit;overflow=hidden;fillColor=none;top=0;left=0;bottom=0;right=0;pointerEvents=1;swimlaneLine=0;" parent="98H9lZZ7wIg3jAL6WraC-59" vertex="1">
          <mxGeometry x="41" width="20" height="18" as="geometry">
            <mxRectangle width="20" height="18" as="alternateBounds" />
          </mxGeometry>
        </mxCell>
        <mxCell id="98H9lZZ7wIg3jAL6WraC-63" value="" style="shape=partialRectangle;html=1;whiteSpace=wrap;connectable=0;strokeColor=inherit;overflow=hidden;fillColor=none;top=0;left=0;bottom=0;right=0;pointerEvents=1;swimlaneLine=0;" parent="98H9lZZ7wIg3jAL6WraC-59" vertex="1">
          <mxGeometry x="61" width="21" height="18" as="geometry">
            <mxRectangle width="21" height="18" as="alternateBounds" />
          </mxGeometry>
        </mxCell>
        <mxCell id="98H9lZZ7wIg3jAL6WraC-64" value="" style="shape=partialRectangle;html=1;whiteSpace=wrap;connectable=0;strokeColor=inherit;overflow=hidden;fillColor=none;top=0;left=0;bottom=0;right=0;pointerEvents=1;swimlaneLine=0;" parent="98H9lZZ7wIg3jAL6WraC-59" vertex="1">
          <mxGeometry x="82" width="20" height="18" as="geometry">
            <mxRectangle width="20" height="18" as="alternateBounds" />
          </mxGeometry>
        </mxCell>
        <mxCell id="98H9lZZ7wIg3jAL6WraC-65" value="" style="shape=partialRectangle;html=1;whiteSpace=wrap;connectable=0;strokeColor=inherit;overflow=hidden;fillColor=none;top=0;left=0;bottom=0;right=0;pointerEvents=1;swimlaneLine=0;" parent="98H9lZZ7wIg3jAL6WraC-59" vertex="1">
          <mxGeometry x="102" width="21" height="18" as="geometry">
            <mxRectangle width="21" height="18" as="alternateBounds" />
          </mxGeometry>
        </mxCell>
        <mxCell id="98H9lZZ7wIg3jAL6WraC-66" value="" style="shape=partialRectangle;html=1;whiteSpace=wrap;connectable=0;strokeColor=inherit;overflow=hidden;fillColor=none;top=0;left=0;bottom=0;right=0;pointerEvents=1;swimlaneLine=0;" parent="98H9lZZ7wIg3jAL6WraC-59" vertex="1">
          <mxGeometry x="123" width="20" height="18" as="geometry">
            <mxRectangle width="20" height="18" as="alternateBounds" />
          </mxGeometry>
        </mxCell>
        <mxCell id="98H9lZZ7wIg3jAL6WraC-67" value="" style="shape=partialRectangle;html=1;whiteSpace=wrap;connectable=0;strokeColor=inherit;overflow=hidden;fillColor=none;top=0;left=0;bottom=0;right=0;pointerEvents=1;swimlaneLine=0;" parent="98H9lZZ7wIg3jAL6WraC-59" vertex="1">
          <mxGeometry x="143" width="21" height="18" as="geometry">
            <mxRectangle width="21" height="18" as="alternateBounds" />
          </mxGeometry>
        </mxCell>
        <mxCell id="98H9lZZ7wIg3jAL6WraC-68" value="" style="shape=partialRectangle;html=1;whiteSpace=wrap;connectable=0;strokeColor=inherit;overflow=hidden;fillColor=none;top=0;left=0;bottom=0;right=0;pointerEvents=1;swimlaneLine=0;" parent="98H9lZZ7wIg3jAL6WraC-59" vertex="1">
          <mxGeometry x="164" width="20" height="18" as="geometry">
            <mxRectangle width="20" height="18" as="alternateBounds" />
          </mxGeometry>
        </mxCell>
        <mxCell id="98H9lZZ7wIg3jAL6WraC-69" value="" style="shape=tableRow;horizontal=0;startSize=0;swimlaneHead=0;swimlaneBody=0;strokeColor=inherit;top=0;left=0;bottom=0;right=0;collapsible=0;dropTarget=0;fillColor=none;points=[[0,0.5],[1,0.5]];portConstraint=eastwest;swimlaneLine=0;" parent="98H9lZZ7wIg3jAL6WraC-18" vertex="1">
          <mxGeometry y="89" width="184" height="18" as="geometry" />
        </mxCell>
        <mxCell id="98H9lZZ7wIg3jAL6WraC-70" value="" style="shape=partialRectangle;html=1;whiteSpace=wrap;connectable=0;strokeColor=inherit;overflow=hidden;fillColor=none;top=0;left=0;bottom=0;right=0;pointerEvents=1;swimlaneLine=0;" parent="98H9lZZ7wIg3jAL6WraC-69" vertex="1">
          <mxGeometry width="20" height="18" as="geometry">
            <mxRectangle width="20" height="18" as="alternateBounds" />
          </mxGeometry>
        </mxCell>
        <mxCell id="98H9lZZ7wIg3jAL6WraC-71" value="" style="shape=partialRectangle;html=1;whiteSpace=wrap;connectable=0;strokeColor=inherit;overflow=hidden;fillColor=none;top=0;left=0;bottom=0;right=0;pointerEvents=1;swimlaneLine=0;" parent="98H9lZZ7wIg3jAL6WraC-69" vertex="1">
          <mxGeometry x="20" width="21" height="18" as="geometry">
            <mxRectangle width="21" height="18" as="alternateBounds" />
          </mxGeometry>
        </mxCell>
        <mxCell id="98H9lZZ7wIg3jAL6WraC-72" value="" style="shape=partialRectangle;html=1;whiteSpace=wrap;connectable=0;strokeColor=inherit;overflow=hidden;fillColor=none;top=0;left=0;bottom=0;right=0;pointerEvents=1;swimlaneLine=0;" parent="98H9lZZ7wIg3jAL6WraC-69" vertex="1">
          <mxGeometry x="41" width="20" height="18" as="geometry">
            <mxRectangle width="20" height="18" as="alternateBounds" />
          </mxGeometry>
        </mxCell>
        <mxCell id="98H9lZZ7wIg3jAL6WraC-73" value="" style="shape=partialRectangle;html=1;whiteSpace=wrap;connectable=0;strokeColor=inherit;overflow=hidden;fillColor=none;top=0;left=0;bottom=0;right=0;pointerEvents=1;swimlaneLine=0;" parent="98H9lZZ7wIg3jAL6WraC-69" vertex="1">
          <mxGeometry x="61" width="21" height="18" as="geometry">
            <mxRectangle width="21" height="18" as="alternateBounds" />
          </mxGeometry>
        </mxCell>
        <mxCell id="98H9lZZ7wIg3jAL6WraC-74" value="" style="shape=partialRectangle;html=1;whiteSpace=wrap;connectable=0;strokeColor=inherit;overflow=hidden;fillColor=none;top=0;left=0;bottom=0;right=0;pointerEvents=1;swimlaneLine=0;" parent="98H9lZZ7wIg3jAL6WraC-69" vertex="1">
          <mxGeometry x="82" width="20" height="18" as="geometry">
            <mxRectangle width="20" height="18" as="alternateBounds" />
          </mxGeometry>
        </mxCell>
        <mxCell id="98H9lZZ7wIg3jAL6WraC-75" value="" style="shape=partialRectangle;html=1;whiteSpace=wrap;connectable=0;strokeColor=inherit;overflow=hidden;fillColor=none;top=0;left=0;bottom=0;right=0;pointerEvents=1;swimlaneLine=0;" parent="98H9lZZ7wIg3jAL6WraC-69" vertex="1">
          <mxGeometry x="102" width="21" height="18" as="geometry">
            <mxRectangle width="21" height="18" as="alternateBounds" />
          </mxGeometry>
        </mxCell>
        <mxCell id="98H9lZZ7wIg3jAL6WraC-76" value="" style="shape=partialRectangle;html=1;whiteSpace=wrap;connectable=0;strokeColor=inherit;overflow=hidden;fillColor=none;top=0;left=0;bottom=0;right=0;pointerEvents=1;swimlaneLine=0;" parent="98H9lZZ7wIg3jAL6WraC-69" vertex="1">
          <mxGeometry x="123" width="20" height="18" as="geometry">
            <mxRectangle width="20" height="18" as="alternateBounds" />
          </mxGeometry>
        </mxCell>
        <mxCell id="98H9lZZ7wIg3jAL6WraC-77" value="" style="shape=partialRectangle;html=1;whiteSpace=wrap;connectable=0;strokeColor=inherit;overflow=hidden;fillColor=none;top=0;left=0;bottom=0;right=0;pointerEvents=1;swimlaneLine=0;" parent="98H9lZZ7wIg3jAL6WraC-69" vertex="1">
          <mxGeometry x="143" width="21" height="18" as="geometry">
            <mxRectangle width="21" height="18" as="alternateBounds" />
          </mxGeometry>
        </mxCell>
        <mxCell id="98H9lZZ7wIg3jAL6WraC-78" value="" style="shape=partialRectangle;html=1;whiteSpace=wrap;connectable=0;strokeColor=inherit;overflow=hidden;fillColor=none;top=0;left=0;bottom=0;right=0;pointerEvents=1;swimlaneLine=0;" parent="98H9lZZ7wIg3jAL6WraC-69" vertex="1">
          <mxGeometry x="164" width="20" height="18" as="geometry">
            <mxRectangle width="20" height="18" as="alternateBounds" />
          </mxGeometry>
        </mxCell>
        <mxCell id="98H9lZZ7wIg3jAL6WraC-79" value="" style="shape=tableRow;horizontal=0;startSize=0;swimlaneHead=0;swimlaneBody=0;strokeColor=inherit;top=0;left=0;bottom=0;right=0;collapsible=0;dropTarget=0;fillColor=none;points=[[0,0.5],[1,0.5]];portConstraint=eastwest;swimlaneLine=0;" parent="98H9lZZ7wIg3jAL6WraC-18" vertex="1">
          <mxGeometry y="107" width="184" height="17" as="geometry" />
        </mxCell>
        <mxCell id="98H9lZZ7wIg3jAL6WraC-80" value="" style="shape=partialRectangle;html=1;whiteSpace=wrap;connectable=0;strokeColor=inherit;overflow=hidden;fillColor=none;top=0;left=0;bottom=0;right=0;pointerEvents=1;swimlaneLine=0;" parent="98H9lZZ7wIg3jAL6WraC-79" vertex="1">
          <mxGeometry width="20" height="17" as="geometry">
            <mxRectangle width="20" height="17" as="alternateBounds" />
          </mxGeometry>
        </mxCell>
        <mxCell id="98H9lZZ7wIg3jAL6WraC-81" value="" style="shape=partialRectangle;html=1;whiteSpace=wrap;connectable=0;strokeColor=inherit;overflow=hidden;fillColor=none;top=0;left=0;bottom=0;right=0;pointerEvents=1;swimlaneLine=0;" parent="98H9lZZ7wIg3jAL6WraC-79" vertex="1">
          <mxGeometry x="20" width="21" height="17" as="geometry">
            <mxRectangle width="21" height="17" as="alternateBounds" />
          </mxGeometry>
        </mxCell>
        <mxCell id="98H9lZZ7wIg3jAL6WraC-82" value="" style="shape=partialRectangle;html=1;whiteSpace=wrap;connectable=0;strokeColor=inherit;overflow=hidden;fillColor=none;top=0;left=0;bottom=0;right=0;pointerEvents=1;swimlaneLine=0;" parent="98H9lZZ7wIg3jAL6WraC-79" vertex="1">
          <mxGeometry x="41" width="20" height="17" as="geometry">
            <mxRectangle width="20" height="17" as="alternateBounds" />
          </mxGeometry>
        </mxCell>
        <mxCell id="98H9lZZ7wIg3jAL6WraC-83" value="" style="shape=partialRectangle;html=1;whiteSpace=wrap;connectable=0;strokeColor=inherit;overflow=hidden;fillColor=none;top=0;left=0;bottom=0;right=0;pointerEvents=1;swimlaneLine=0;" parent="98H9lZZ7wIg3jAL6WraC-79" vertex="1">
          <mxGeometry x="61" width="21" height="17" as="geometry">
            <mxRectangle width="21" height="17" as="alternateBounds" />
          </mxGeometry>
        </mxCell>
        <mxCell id="98H9lZZ7wIg3jAL6WraC-84" value="" style="shape=partialRectangle;html=1;whiteSpace=wrap;connectable=0;strokeColor=inherit;overflow=hidden;fillColor=none;top=0;left=0;bottom=0;right=0;pointerEvents=1;swimlaneLine=0;" parent="98H9lZZ7wIg3jAL6WraC-79" vertex="1">
          <mxGeometry x="82" width="20" height="17" as="geometry">
            <mxRectangle width="20" height="17" as="alternateBounds" />
          </mxGeometry>
        </mxCell>
        <mxCell id="98H9lZZ7wIg3jAL6WraC-85" value="" style="shape=partialRectangle;html=1;whiteSpace=wrap;connectable=0;strokeColor=inherit;overflow=hidden;fillColor=none;top=0;left=0;bottom=0;right=0;pointerEvents=1;swimlaneLine=0;" parent="98H9lZZ7wIg3jAL6WraC-79" vertex="1">
          <mxGeometry x="102" width="21" height="17" as="geometry">
            <mxRectangle width="21" height="17" as="alternateBounds" />
          </mxGeometry>
        </mxCell>
        <mxCell id="98H9lZZ7wIg3jAL6WraC-86" value="" style="shape=partialRectangle;html=1;whiteSpace=wrap;connectable=0;strokeColor=inherit;overflow=hidden;fillColor=none;top=0;left=0;bottom=0;right=0;pointerEvents=1;swimlaneLine=0;" parent="98H9lZZ7wIg3jAL6WraC-79" vertex="1">
          <mxGeometry x="123" width="20" height="17" as="geometry">
            <mxRectangle width="20" height="17" as="alternateBounds" />
          </mxGeometry>
        </mxCell>
        <mxCell id="98H9lZZ7wIg3jAL6WraC-87" value="" style="shape=partialRectangle;html=1;whiteSpace=wrap;connectable=0;strokeColor=inherit;overflow=hidden;fillColor=none;top=0;left=0;bottom=0;right=0;pointerEvents=1;swimlaneLine=0;" parent="98H9lZZ7wIg3jAL6WraC-79" vertex="1">
          <mxGeometry x="143" width="21" height="17" as="geometry">
            <mxRectangle width="21" height="17" as="alternateBounds" />
          </mxGeometry>
        </mxCell>
        <mxCell id="98H9lZZ7wIg3jAL6WraC-88" value="" style="shape=partialRectangle;html=1;whiteSpace=wrap;connectable=0;strokeColor=inherit;overflow=hidden;fillColor=none;top=0;left=0;bottom=0;right=0;pointerEvents=1;swimlaneLine=0;" parent="98H9lZZ7wIg3jAL6WraC-79" vertex="1">
          <mxGeometry x="164" width="20" height="17" as="geometry">
            <mxRectangle width="20" height="17" as="alternateBounds" />
          </mxGeometry>
        </mxCell>
        <mxCell id="98H9lZZ7wIg3jAL6WraC-89" value="" style="shape=tableRow;horizontal=0;startSize=0;swimlaneHead=0;swimlaneBody=0;strokeColor=inherit;top=0;left=0;bottom=0;right=0;collapsible=0;dropTarget=0;fillColor=none;points=[[0,0.5],[1,0.5]];portConstraint=eastwest;swimlaneLine=0;" parent="98H9lZZ7wIg3jAL6WraC-18" vertex="1">
          <mxGeometry y="124" width="184" height="18" as="geometry" />
        </mxCell>
        <mxCell id="98H9lZZ7wIg3jAL6WraC-90" value="" style="shape=partialRectangle;html=1;whiteSpace=wrap;connectable=0;strokeColor=inherit;overflow=hidden;fillColor=none;top=0;left=0;bottom=0;right=0;pointerEvents=1;swimlaneLine=0;" parent="98H9lZZ7wIg3jAL6WraC-89" vertex="1">
          <mxGeometry width="20" height="18" as="geometry">
            <mxRectangle width="20" height="18" as="alternateBounds" />
          </mxGeometry>
        </mxCell>
        <mxCell id="98H9lZZ7wIg3jAL6WraC-91" value="" style="shape=partialRectangle;html=1;whiteSpace=wrap;connectable=0;strokeColor=inherit;overflow=hidden;fillColor=none;top=0;left=0;bottom=0;right=0;pointerEvents=1;swimlaneLine=0;" parent="98H9lZZ7wIg3jAL6WraC-89" vertex="1">
          <mxGeometry x="20" width="21" height="18" as="geometry">
            <mxRectangle width="21" height="18" as="alternateBounds" />
          </mxGeometry>
        </mxCell>
        <mxCell id="98H9lZZ7wIg3jAL6WraC-92" value="" style="shape=partialRectangle;html=1;whiteSpace=wrap;connectable=0;strokeColor=inherit;overflow=hidden;fillColor=none;top=0;left=0;bottom=0;right=0;pointerEvents=1;swimlaneLine=0;" parent="98H9lZZ7wIg3jAL6WraC-89" vertex="1">
          <mxGeometry x="41" width="20" height="18" as="geometry">
            <mxRectangle width="20" height="18" as="alternateBounds" />
          </mxGeometry>
        </mxCell>
        <mxCell id="98H9lZZ7wIg3jAL6WraC-93" value="" style="shape=partialRectangle;html=1;whiteSpace=wrap;connectable=0;strokeColor=inherit;overflow=hidden;fillColor=none;top=0;left=0;bottom=0;right=0;pointerEvents=1;swimlaneLine=0;" parent="98H9lZZ7wIg3jAL6WraC-89" vertex="1">
          <mxGeometry x="61" width="21" height="18" as="geometry">
            <mxRectangle width="21" height="18" as="alternateBounds" />
          </mxGeometry>
        </mxCell>
        <mxCell id="98H9lZZ7wIg3jAL6WraC-94" value="" style="shape=partialRectangle;html=1;whiteSpace=wrap;connectable=0;strokeColor=inherit;overflow=hidden;fillColor=none;top=0;left=0;bottom=0;right=0;pointerEvents=1;swimlaneLine=0;" parent="98H9lZZ7wIg3jAL6WraC-89" vertex="1">
          <mxGeometry x="82" width="20" height="18" as="geometry">
            <mxRectangle width="20" height="18" as="alternateBounds" />
          </mxGeometry>
        </mxCell>
        <mxCell id="98H9lZZ7wIg3jAL6WraC-95" value="" style="shape=partialRectangle;html=1;whiteSpace=wrap;connectable=0;strokeColor=inherit;overflow=hidden;fillColor=none;top=0;left=0;bottom=0;right=0;pointerEvents=1;swimlaneLine=0;" parent="98H9lZZ7wIg3jAL6WraC-89" vertex="1">
          <mxGeometry x="102" width="21" height="18" as="geometry">
            <mxRectangle width="21" height="18" as="alternateBounds" />
          </mxGeometry>
        </mxCell>
        <mxCell id="98H9lZZ7wIg3jAL6WraC-96" value="" style="shape=partialRectangle;html=1;whiteSpace=wrap;connectable=0;strokeColor=inherit;overflow=hidden;fillColor=none;top=0;left=0;bottom=0;right=0;pointerEvents=1;swimlaneLine=0;" parent="98H9lZZ7wIg3jAL6WraC-89" vertex="1">
          <mxGeometry x="123" width="20" height="18" as="geometry">
            <mxRectangle width="20" height="18" as="alternateBounds" />
          </mxGeometry>
        </mxCell>
        <mxCell id="98H9lZZ7wIg3jAL6WraC-97" value="" style="shape=partialRectangle;html=1;whiteSpace=wrap;connectable=0;strokeColor=inherit;overflow=hidden;fillColor=none;top=0;left=0;bottom=0;right=0;pointerEvents=1;swimlaneLine=0;" parent="98H9lZZ7wIg3jAL6WraC-89" vertex="1">
          <mxGeometry x="143" width="21" height="18" as="geometry">
            <mxRectangle width="21" height="18" as="alternateBounds" />
          </mxGeometry>
        </mxCell>
        <mxCell id="98H9lZZ7wIg3jAL6WraC-98" value="" style="shape=partialRectangle;html=1;whiteSpace=wrap;connectable=0;strokeColor=inherit;overflow=hidden;fillColor=none;top=0;left=0;bottom=0;right=0;pointerEvents=1;swimlaneLine=0;" parent="98H9lZZ7wIg3jAL6WraC-89" vertex="1">
          <mxGeometry x="164" width="20" height="18" as="geometry">
            <mxRectangle width="20" height="18" as="alternateBounds" />
          </mxGeometry>
        </mxCell>
        <mxCell id="98H9lZZ7wIg3jAL6WraC-99" value="" style="shape=tableRow;horizontal=0;startSize=0;swimlaneHead=0;swimlaneBody=0;strokeColor=inherit;top=0;left=0;bottom=0;right=0;collapsible=0;dropTarget=0;fillColor=none;points=[[0,0.5],[1,0.5]];portConstraint=eastwest;swimlaneLine=0;" parent="98H9lZZ7wIg3jAL6WraC-18" vertex="1">
          <mxGeometry y="142" width="184" height="18" as="geometry" />
        </mxCell>
        <mxCell id="98H9lZZ7wIg3jAL6WraC-100" value="" style="shape=partialRectangle;html=1;whiteSpace=wrap;connectable=0;strokeColor=inherit;overflow=hidden;fillColor=none;top=0;left=0;bottom=0;right=0;pointerEvents=1;swimlaneLine=0;" parent="98H9lZZ7wIg3jAL6WraC-99" vertex="1">
          <mxGeometry width="20" height="18" as="geometry">
            <mxRectangle width="20" height="18" as="alternateBounds" />
          </mxGeometry>
        </mxCell>
        <mxCell id="98H9lZZ7wIg3jAL6WraC-101" value="" style="shape=partialRectangle;html=1;whiteSpace=wrap;connectable=0;strokeColor=inherit;overflow=hidden;fillColor=none;top=0;left=0;bottom=0;right=0;pointerEvents=1;swimlaneLine=0;" parent="98H9lZZ7wIg3jAL6WraC-99" vertex="1">
          <mxGeometry x="20" width="21" height="18" as="geometry">
            <mxRectangle width="21" height="18" as="alternateBounds" />
          </mxGeometry>
        </mxCell>
        <mxCell id="98H9lZZ7wIg3jAL6WraC-102" value="" style="shape=partialRectangle;html=1;whiteSpace=wrap;connectable=0;strokeColor=inherit;overflow=hidden;fillColor=none;top=0;left=0;bottom=0;right=0;pointerEvents=1;swimlaneLine=0;" parent="98H9lZZ7wIg3jAL6WraC-99" vertex="1">
          <mxGeometry x="41" width="20" height="18" as="geometry">
            <mxRectangle width="20" height="18" as="alternateBounds" />
          </mxGeometry>
        </mxCell>
        <mxCell id="98H9lZZ7wIg3jAL6WraC-103" value="" style="shape=partialRectangle;html=1;whiteSpace=wrap;connectable=0;strokeColor=inherit;overflow=hidden;fillColor=none;top=0;left=0;bottom=0;right=0;pointerEvents=1;swimlaneLine=0;" parent="98H9lZZ7wIg3jAL6WraC-99" vertex="1">
          <mxGeometry x="61" width="21" height="18" as="geometry">
            <mxRectangle width="21" height="18" as="alternateBounds" />
          </mxGeometry>
        </mxCell>
        <mxCell id="98H9lZZ7wIg3jAL6WraC-104" value="" style="shape=partialRectangle;html=1;whiteSpace=wrap;connectable=0;strokeColor=inherit;overflow=hidden;fillColor=none;top=0;left=0;bottom=0;right=0;pointerEvents=1;swimlaneLine=0;" parent="98H9lZZ7wIg3jAL6WraC-99" vertex="1">
          <mxGeometry x="82" width="20" height="18" as="geometry">
            <mxRectangle width="20" height="18" as="alternateBounds" />
          </mxGeometry>
        </mxCell>
        <mxCell id="98H9lZZ7wIg3jAL6WraC-105" value="" style="shape=partialRectangle;html=1;whiteSpace=wrap;connectable=0;strokeColor=inherit;overflow=hidden;fillColor=none;top=0;left=0;bottom=0;right=0;pointerEvents=1;swimlaneLine=0;" parent="98H9lZZ7wIg3jAL6WraC-99" vertex="1">
          <mxGeometry x="102" width="21" height="18" as="geometry">
            <mxRectangle width="21" height="18" as="alternateBounds" />
          </mxGeometry>
        </mxCell>
        <mxCell id="98H9lZZ7wIg3jAL6WraC-106" value="" style="shape=partialRectangle;html=1;whiteSpace=wrap;connectable=0;strokeColor=inherit;overflow=hidden;fillColor=none;top=0;left=0;bottom=0;right=0;pointerEvents=1;swimlaneLine=0;" parent="98H9lZZ7wIg3jAL6WraC-99" vertex="1">
          <mxGeometry x="123" width="20" height="18" as="geometry">
            <mxRectangle width="20" height="18" as="alternateBounds" />
          </mxGeometry>
        </mxCell>
        <mxCell id="98H9lZZ7wIg3jAL6WraC-107" value="" style="shape=partialRectangle;html=1;whiteSpace=wrap;connectable=0;strokeColor=inherit;overflow=hidden;fillColor=none;top=0;left=0;bottom=0;right=0;pointerEvents=1;swimlaneLine=0;" parent="98H9lZZ7wIg3jAL6WraC-99" vertex="1">
          <mxGeometry x="143" width="21" height="18" as="geometry">
            <mxRectangle width="21" height="18" as="alternateBounds" />
          </mxGeometry>
        </mxCell>
        <mxCell id="98H9lZZ7wIg3jAL6WraC-108" value="" style="shape=partialRectangle;html=1;whiteSpace=wrap;connectable=0;strokeColor=inherit;overflow=hidden;fillColor=none;top=0;left=0;bottom=0;right=0;pointerEvents=1;swimlaneLine=0;" parent="98H9lZZ7wIg3jAL6WraC-99" vertex="1">
          <mxGeometry x="164" width="20" height="18" as="geometry">
            <mxRectangle width="20" height="18" as="alternateBounds" />
          </mxGeometry>
        </mxCell>
        <mxCell id="98H9lZZ7wIg3jAL6WraC-109" value="" style="shape=table;startSize=0;container=1;collapsible=0;childLayout=tableLayout;" parent="1" vertex="1">
          <mxGeometry x="480" y="210" width="184" height="160" as="geometry" />
        </mxCell>
        <mxCell id="98H9lZZ7wIg3jAL6WraC-110" value="" style="shape=tableRow;horizontal=0;startSize=0;swimlaneHead=0;swimlaneBody=0;strokeColor=inherit;top=0;left=0;bottom=0;right=0;collapsible=0;dropTarget=0;fillColor=none;points=[[0,0.5],[1,0.5]];portConstraint=eastwest;" parent="98H9lZZ7wIg3jAL6WraC-109" vertex="1">
          <mxGeometry width="184" height="18" as="geometry" />
        </mxCell>
        <mxCell id="98H9lZZ7wIg3jAL6WraC-111" value="" style="shape=partialRectangle;html=1;whiteSpace=wrap;connectable=0;strokeColor=#b46504;overflow=hidden;fillColor=#fad7ac;top=0;left=0;bottom=0;right=0;pointerEvents=1;sketch=1;curveFitting=1;jiggle=2;" parent="98H9lZZ7wIg3jAL6WraC-110" vertex="1">
          <mxGeometry width="20" height="18" as="geometry">
            <mxRectangle width="20" height="18" as="alternateBounds" />
          </mxGeometry>
        </mxCell>
        <mxCell id="98H9lZZ7wIg3jAL6WraC-112" value="" style="shape=partialRectangle;html=1;whiteSpace=wrap;connectable=0;strokeColor=#b46504;overflow=hidden;fillColor=#fad7ac;top=0;left=0;bottom=0;right=0;pointerEvents=1;sketch=1;curveFitting=1;jiggle=2;" parent="98H9lZZ7wIg3jAL6WraC-110" vertex="1">
          <mxGeometry x="20" width="21" height="18" as="geometry">
            <mxRectangle width="21" height="18" as="alternateBounds" />
          </mxGeometry>
        </mxCell>
        <mxCell id="98H9lZZ7wIg3jAL6WraC-113" value="" style="shape=partialRectangle;html=1;whiteSpace=wrap;connectable=0;strokeColor=#b46504;overflow=hidden;fillColor=#fad7ac;top=0;left=0;bottom=0;right=0;pointerEvents=1;sketch=1;curveFitting=1;jiggle=2;" parent="98H9lZZ7wIg3jAL6WraC-110" vertex="1">
          <mxGeometry x="41" width="20" height="18" as="geometry">
            <mxRectangle width="20" height="18" as="alternateBounds" />
          </mxGeometry>
        </mxCell>
        <mxCell id="98H9lZZ7wIg3jAL6WraC-114" value="" style="shape=partialRectangle;html=1;whiteSpace=wrap;connectable=0;strokeColor=inherit;overflow=hidden;fillColor=none;top=0;left=0;bottom=0;right=0;pointerEvents=1;" parent="98H9lZZ7wIg3jAL6WraC-110" vertex="1">
          <mxGeometry x="61" width="21" height="18" as="geometry">
            <mxRectangle width="21" height="18" as="alternateBounds" />
          </mxGeometry>
        </mxCell>
        <mxCell id="98H9lZZ7wIg3jAL6WraC-115" value="" style="shape=partialRectangle;html=1;whiteSpace=wrap;connectable=0;strokeColor=inherit;overflow=hidden;fillColor=none;top=0;left=0;bottom=0;right=0;pointerEvents=1;" parent="98H9lZZ7wIg3jAL6WraC-110" vertex="1">
          <mxGeometry x="82" width="20" height="18" as="geometry">
            <mxRectangle width="20" height="18" as="alternateBounds" />
          </mxGeometry>
        </mxCell>
        <mxCell id="98H9lZZ7wIg3jAL6WraC-116" value="" style="shape=partialRectangle;html=1;whiteSpace=wrap;connectable=0;strokeColor=inherit;overflow=hidden;fillColor=none;top=0;left=0;bottom=0;right=0;pointerEvents=1;" parent="98H9lZZ7wIg3jAL6WraC-110" vertex="1">
          <mxGeometry x="102" width="21" height="18" as="geometry">
            <mxRectangle width="21" height="18" as="alternateBounds" />
          </mxGeometry>
        </mxCell>
        <mxCell id="98H9lZZ7wIg3jAL6WraC-117" value="" style="shape=partialRectangle;html=1;whiteSpace=wrap;connectable=0;strokeColor=inherit;overflow=hidden;fillColor=none;top=0;left=0;bottom=0;right=0;pointerEvents=1;" parent="98H9lZZ7wIg3jAL6WraC-110" vertex="1">
          <mxGeometry x="123" width="20" height="18" as="geometry">
            <mxRectangle width="20" height="18" as="alternateBounds" />
          </mxGeometry>
        </mxCell>
        <mxCell id="98H9lZZ7wIg3jAL6WraC-118" value="" style="shape=partialRectangle;html=1;whiteSpace=wrap;connectable=0;strokeColor=inherit;overflow=hidden;fillColor=none;top=0;left=0;bottom=0;right=0;pointerEvents=1;" parent="98H9lZZ7wIg3jAL6WraC-110" vertex="1">
          <mxGeometry x="143" width="21" height="18" as="geometry">
            <mxRectangle width="21" height="18" as="alternateBounds" />
          </mxGeometry>
        </mxCell>
        <mxCell id="98H9lZZ7wIg3jAL6WraC-119" value="" style="shape=partialRectangle;html=1;whiteSpace=wrap;connectable=0;strokeColor=inherit;overflow=hidden;fillColor=none;top=0;left=0;bottom=0;right=0;pointerEvents=1;" parent="98H9lZZ7wIg3jAL6WraC-110" vertex="1">
          <mxGeometry x="164" width="20" height="18" as="geometry">
            <mxRectangle width="20" height="18" as="alternateBounds" />
          </mxGeometry>
        </mxCell>
        <mxCell id="98H9lZZ7wIg3jAL6WraC-120" value="" style="shape=tableRow;horizontal=0;startSize=0;swimlaneHead=0;swimlaneBody=0;strokeColor=inherit;top=0;left=0;bottom=0;right=0;collapsible=0;dropTarget=0;fillColor=none;points=[[0,0.5],[1,0.5]];portConstraint=eastwest;" parent="98H9lZZ7wIg3jAL6WraC-109" vertex="1">
          <mxGeometry y="18" width="184" height="18" as="geometry" />
        </mxCell>
        <mxCell id="98H9lZZ7wIg3jAL6WraC-121" value="" style="shape=partialRectangle;html=1;whiteSpace=wrap;connectable=0;strokeColor=#b46504;overflow=hidden;fillColor=#fad7ac;top=0;left=0;bottom=0;right=0;pointerEvents=1;sketch=1;curveFitting=1;jiggle=2;" parent="98H9lZZ7wIg3jAL6WraC-120" vertex="1">
          <mxGeometry width="20" height="18" as="geometry">
            <mxRectangle width="20" height="18" as="alternateBounds" />
          </mxGeometry>
        </mxCell>
        <mxCell id="98H9lZZ7wIg3jAL6WraC-122" value="" style="shape=partialRectangle;html=1;whiteSpace=wrap;connectable=0;strokeColor=#b46504;overflow=hidden;fillColor=#fad7ac;top=0;left=0;bottom=0;right=0;pointerEvents=1;sketch=1;curveFitting=1;jiggle=2;" parent="98H9lZZ7wIg3jAL6WraC-120" vertex="1">
          <mxGeometry x="20" width="21" height="18" as="geometry">
            <mxRectangle width="21" height="18" as="alternateBounds" />
          </mxGeometry>
        </mxCell>
        <mxCell id="98H9lZZ7wIg3jAL6WraC-123" value="" style="shape=partialRectangle;html=1;whiteSpace=wrap;connectable=0;strokeColor=#b46504;overflow=hidden;fillColor=#fad7ac;top=0;left=0;bottom=0;right=0;pointerEvents=1;sketch=1;curveFitting=1;jiggle=2;" parent="98H9lZZ7wIg3jAL6WraC-120" vertex="1">
          <mxGeometry x="41" width="20" height="18" as="geometry">
            <mxRectangle width="20" height="18" as="alternateBounds" />
          </mxGeometry>
        </mxCell>
        <mxCell id="98H9lZZ7wIg3jAL6WraC-124" value="" style="shape=partialRectangle;html=1;whiteSpace=wrap;connectable=0;strokeColor=inherit;overflow=hidden;fillColor=none;top=0;left=0;bottom=0;right=0;pointerEvents=1;" parent="98H9lZZ7wIg3jAL6WraC-120" vertex="1">
          <mxGeometry x="61" width="21" height="18" as="geometry">
            <mxRectangle width="21" height="18" as="alternateBounds" />
          </mxGeometry>
        </mxCell>
        <mxCell id="98H9lZZ7wIg3jAL6WraC-125" value="" style="shape=partialRectangle;html=1;whiteSpace=wrap;connectable=0;strokeColor=inherit;overflow=hidden;fillColor=none;top=0;left=0;bottom=0;right=0;pointerEvents=1;" parent="98H9lZZ7wIg3jAL6WraC-120" vertex="1">
          <mxGeometry x="82" width="20" height="18" as="geometry">
            <mxRectangle width="20" height="18" as="alternateBounds" />
          </mxGeometry>
        </mxCell>
        <mxCell id="98H9lZZ7wIg3jAL6WraC-126" value="" style="shape=partialRectangle;html=1;whiteSpace=wrap;connectable=0;strokeColor=inherit;overflow=hidden;fillColor=none;top=0;left=0;bottom=0;right=0;pointerEvents=1;" parent="98H9lZZ7wIg3jAL6WraC-120" vertex="1">
          <mxGeometry x="102" width="21" height="18" as="geometry">
            <mxRectangle width="21" height="18" as="alternateBounds" />
          </mxGeometry>
        </mxCell>
        <mxCell id="98H9lZZ7wIg3jAL6WraC-127" value="" style="shape=partialRectangle;html=1;whiteSpace=wrap;connectable=0;strokeColor=inherit;overflow=hidden;fillColor=none;top=0;left=0;bottom=0;right=0;pointerEvents=1;" parent="98H9lZZ7wIg3jAL6WraC-120" vertex="1">
          <mxGeometry x="123" width="20" height="18" as="geometry">
            <mxRectangle width="20" height="18" as="alternateBounds" />
          </mxGeometry>
        </mxCell>
        <mxCell id="98H9lZZ7wIg3jAL6WraC-128" value="" style="shape=partialRectangle;html=1;whiteSpace=wrap;connectable=0;strokeColor=inherit;overflow=hidden;fillColor=none;top=0;left=0;bottom=0;right=0;pointerEvents=1;" parent="98H9lZZ7wIg3jAL6WraC-120" vertex="1">
          <mxGeometry x="143" width="21" height="18" as="geometry">
            <mxRectangle width="21" height="18" as="alternateBounds" />
          </mxGeometry>
        </mxCell>
        <mxCell id="98H9lZZ7wIg3jAL6WraC-129" value="" style="shape=partialRectangle;html=1;whiteSpace=wrap;connectable=0;strokeColor=inherit;overflow=hidden;fillColor=none;top=0;left=0;bottom=0;right=0;pointerEvents=1;" parent="98H9lZZ7wIg3jAL6WraC-120" vertex="1">
          <mxGeometry x="164" width="20" height="18" as="geometry">
            <mxRectangle width="20" height="18" as="alternateBounds" />
          </mxGeometry>
        </mxCell>
        <mxCell id="98H9lZZ7wIg3jAL6WraC-130" value="" style="shape=tableRow;horizontal=0;startSize=0;swimlaneHead=0;swimlaneBody=0;strokeColor=inherit;top=0;left=0;bottom=0;right=0;collapsible=0;dropTarget=0;fillColor=none;points=[[0,0.5],[1,0.5]];portConstraint=eastwest;" parent="98H9lZZ7wIg3jAL6WraC-109" vertex="1">
          <mxGeometry y="36" width="184" height="17" as="geometry" />
        </mxCell>
        <mxCell id="98H9lZZ7wIg3jAL6WraC-131" value="" style="shape=partialRectangle;html=1;whiteSpace=wrap;connectable=0;strokeColor=#b46504;overflow=hidden;fillColor=#fad7ac;top=0;left=0;bottom=0;right=0;pointerEvents=1;sketch=1;curveFitting=1;jiggle=2;" parent="98H9lZZ7wIg3jAL6WraC-130" vertex="1">
          <mxGeometry width="20" height="17" as="geometry">
            <mxRectangle width="20" height="17" as="alternateBounds" />
          </mxGeometry>
        </mxCell>
        <mxCell id="98H9lZZ7wIg3jAL6WraC-132" value="" style="shape=partialRectangle;html=1;whiteSpace=wrap;connectable=0;strokeColor=#b46504;overflow=hidden;fillColor=#fad7ac;top=0;left=0;bottom=0;right=0;pointerEvents=1;sketch=1;curveFitting=1;jiggle=2;" parent="98H9lZZ7wIg3jAL6WraC-130" vertex="1">
          <mxGeometry x="20" width="21" height="17" as="geometry">
            <mxRectangle width="21" height="17" as="alternateBounds" />
          </mxGeometry>
        </mxCell>
        <mxCell id="98H9lZZ7wIg3jAL6WraC-133" value="" style="shape=partialRectangle;html=1;whiteSpace=wrap;connectable=0;strokeColor=#b46504;overflow=hidden;fillColor=#fad7ac;top=0;left=0;bottom=0;right=0;pointerEvents=1;sketch=1;curveFitting=1;jiggle=2;" parent="98H9lZZ7wIg3jAL6WraC-130" vertex="1">
          <mxGeometry x="41" width="20" height="17" as="geometry">
            <mxRectangle width="20" height="17" as="alternateBounds" />
          </mxGeometry>
        </mxCell>
        <mxCell id="98H9lZZ7wIg3jAL6WraC-134" value="" style="shape=partialRectangle;html=1;whiteSpace=wrap;connectable=0;strokeColor=inherit;overflow=hidden;fillColor=none;top=0;left=0;bottom=0;right=0;pointerEvents=1;" parent="98H9lZZ7wIg3jAL6WraC-130" vertex="1">
          <mxGeometry x="61" width="21" height="17" as="geometry">
            <mxRectangle width="21" height="17" as="alternateBounds" />
          </mxGeometry>
        </mxCell>
        <mxCell id="98H9lZZ7wIg3jAL6WraC-135" value="" style="shape=partialRectangle;html=1;whiteSpace=wrap;connectable=0;strokeColor=inherit;overflow=hidden;fillColor=none;top=0;left=0;bottom=0;right=0;pointerEvents=1;" parent="98H9lZZ7wIg3jAL6WraC-130" vertex="1">
          <mxGeometry x="82" width="20" height="17" as="geometry">
            <mxRectangle width="20" height="17" as="alternateBounds" />
          </mxGeometry>
        </mxCell>
        <mxCell id="98H9lZZ7wIg3jAL6WraC-136" value="" style="shape=partialRectangle;html=1;whiteSpace=wrap;connectable=0;strokeColor=inherit;overflow=hidden;fillColor=none;top=0;left=0;bottom=0;right=0;pointerEvents=1;" parent="98H9lZZ7wIg3jAL6WraC-130" vertex="1">
          <mxGeometry x="102" width="21" height="17" as="geometry">
            <mxRectangle width="21" height="17" as="alternateBounds" />
          </mxGeometry>
        </mxCell>
        <mxCell id="98H9lZZ7wIg3jAL6WraC-137" value="" style="shape=partialRectangle;html=1;whiteSpace=wrap;connectable=0;strokeColor=inherit;overflow=hidden;fillColor=none;top=0;left=0;bottom=0;right=0;pointerEvents=1;" parent="98H9lZZ7wIg3jAL6WraC-130" vertex="1">
          <mxGeometry x="123" width="20" height="17" as="geometry">
            <mxRectangle width="20" height="17" as="alternateBounds" />
          </mxGeometry>
        </mxCell>
        <mxCell id="98H9lZZ7wIg3jAL6WraC-138" value="" style="shape=partialRectangle;html=1;whiteSpace=wrap;connectable=0;strokeColor=inherit;overflow=hidden;fillColor=none;top=0;left=0;bottom=0;right=0;pointerEvents=1;" parent="98H9lZZ7wIg3jAL6WraC-130" vertex="1">
          <mxGeometry x="143" width="21" height="17" as="geometry">
            <mxRectangle width="21" height="17" as="alternateBounds" />
          </mxGeometry>
        </mxCell>
        <mxCell id="98H9lZZ7wIg3jAL6WraC-139" value="" style="shape=partialRectangle;html=1;whiteSpace=wrap;connectable=0;strokeColor=inherit;overflow=hidden;fillColor=none;top=0;left=0;bottom=0;right=0;pointerEvents=1;" parent="98H9lZZ7wIg3jAL6WraC-130" vertex="1">
          <mxGeometry x="164" width="20" height="17" as="geometry">
            <mxRectangle width="20" height="17" as="alternateBounds" />
          </mxGeometry>
        </mxCell>
        <mxCell id="98H9lZZ7wIg3jAL6WraC-140" value="" style="shape=tableRow;horizontal=0;startSize=0;swimlaneHead=0;swimlaneBody=0;strokeColor=inherit;top=0;left=0;bottom=0;right=0;collapsible=0;dropTarget=0;fillColor=none;points=[[0,0.5],[1,0.5]];portConstraint=eastwest;" parent="98H9lZZ7wIg3jAL6WraC-109" vertex="1">
          <mxGeometry y="53" width="184" height="18" as="geometry" />
        </mxCell>
        <mxCell id="98H9lZZ7wIg3jAL6WraC-141" value="" style="shape=partialRectangle;html=1;whiteSpace=wrap;connectable=0;strokeColor=#b46504;overflow=hidden;fillColor=#fad7ac;top=0;left=0;bottom=0;right=0;pointerEvents=1;sketch=1;curveFitting=1;jiggle=2;" parent="98H9lZZ7wIg3jAL6WraC-140" vertex="1">
          <mxGeometry width="20" height="18" as="geometry">
            <mxRectangle width="20" height="18" as="alternateBounds" />
          </mxGeometry>
        </mxCell>
        <mxCell id="98H9lZZ7wIg3jAL6WraC-142" value="" style="shape=partialRectangle;html=1;whiteSpace=wrap;connectable=0;strokeColor=#b46504;overflow=hidden;fillColor=#fad7ac;top=0;left=0;bottom=0;right=0;pointerEvents=1;sketch=1;curveFitting=1;jiggle=2;" parent="98H9lZZ7wIg3jAL6WraC-140" vertex="1">
          <mxGeometry x="20" width="21" height="18" as="geometry">
            <mxRectangle width="21" height="18" as="alternateBounds" />
          </mxGeometry>
        </mxCell>
        <mxCell id="98H9lZZ7wIg3jAL6WraC-143" value="" style="shape=partialRectangle;html=1;whiteSpace=wrap;connectable=0;strokeColor=#b46504;overflow=hidden;fillColor=#fad7ac;top=0;left=0;bottom=0;right=0;pointerEvents=1;sketch=1;curveFitting=1;jiggle=2;" parent="98H9lZZ7wIg3jAL6WraC-140" vertex="1">
          <mxGeometry x="41" width="20" height="18" as="geometry">
            <mxRectangle width="20" height="18" as="alternateBounds" />
          </mxGeometry>
        </mxCell>
        <mxCell id="98H9lZZ7wIg3jAL6WraC-144" value="" style="shape=partialRectangle;html=1;whiteSpace=wrap;connectable=0;strokeColor=inherit;overflow=hidden;fillColor=none;top=0;left=0;bottom=0;right=0;pointerEvents=1;" parent="98H9lZZ7wIg3jAL6WraC-140" vertex="1">
          <mxGeometry x="61" width="21" height="18" as="geometry">
            <mxRectangle width="21" height="18" as="alternateBounds" />
          </mxGeometry>
        </mxCell>
        <mxCell id="98H9lZZ7wIg3jAL6WraC-145" value="" style="shape=partialRectangle;html=1;whiteSpace=wrap;connectable=0;strokeColor=inherit;overflow=hidden;fillColor=none;top=0;left=0;bottom=0;right=0;pointerEvents=1;" parent="98H9lZZ7wIg3jAL6WraC-140" vertex="1">
          <mxGeometry x="82" width="20" height="18" as="geometry">
            <mxRectangle width="20" height="18" as="alternateBounds" />
          </mxGeometry>
        </mxCell>
        <mxCell id="98H9lZZ7wIg3jAL6WraC-146" value="" style="shape=partialRectangle;html=1;whiteSpace=wrap;connectable=0;strokeColor=inherit;overflow=hidden;fillColor=none;top=0;left=0;bottom=0;right=0;pointerEvents=1;" parent="98H9lZZ7wIg3jAL6WraC-140" vertex="1">
          <mxGeometry x="102" width="21" height="18" as="geometry">
            <mxRectangle width="21" height="18" as="alternateBounds" />
          </mxGeometry>
        </mxCell>
        <mxCell id="98H9lZZ7wIg3jAL6WraC-147" value="" style="shape=partialRectangle;html=1;whiteSpace=wrap;connectable=0;strokeColor=inherit;overflow=hidden;fillColor=none;top=0;left=0;bottom=0;right=0;pointerEvents=1;" parent="98H9lZZ7wIg3jAL6WraC-140" vertex="1">
          <mxGeometry x="123" width="20" height="18" as="geometry">
            <mxRectangle width="20" height="18" as="alternateBounds" />
          </mxGeometry>
        </mxCell>
        <mxCell id="98H9lZZ7wIg3jAL6WraC-148" value="" style="shape=partialRectangle;html=1;whiteSpace=wrap;connectable=0;strokeColor=inherit;overflow=hidden;fillColor=none;top=0;left=0;bottom=0;right=0;pointerEvents=1;" parent="98H9lZZ7wIg3jAL6WraC-140" vertex="1">
          <mxGeometry x="143" width="21" height="18" as="geometry">
            <mxRectangle width="21" height="18" as="alternateBounds" />
          </mxGeometry>
        </mxCell>
        <mxCell id="98H9lZZ7wIg3jAL6WraC-149" value="" style="shape=partialRectangle;html=1;whiteSpace=wrap;connectable=0;strokeColor=inherit;overflow=hidden;fillColor=none;top=0;left=0;bottom=0;right=0;pointerEvents=1;" parent="98H9lZZ7wIg3jAL6WraC-140" vertex="1">
          <mxGeometry x="164" width="20" height="18" as="geometry">
            <mxRectangle width="20" height="18" as="alternateBounds" />
          </mxGeometry>
        </mxCell>
        <mxCell id="98H9lZZ7wIg3jAL6WraC-150" value="" style="shape=tableRow;horizontal=0;startSize=0;swimlaneHead=0;swimlaneBody=0;strokeColor=inherit;top=0;left=0;bottom=0;right=0;collapsible=0;dropTarget=0;fillColor=none;points=[[0,0.5],[1,0.5]];portConstraint=eastwest;" parent="98H9lZZ7wIg3jAL6WraC-109" vertex="1">
          <mxGeometry y="71" width="184" height="18" as="geometry" />
        </mxCell>
        <mxCell id="98H9lZZ7wIg3jAL6WraC-151" value="" style="shape=partialRectangle;html=1;whiteSpace=wrap;connectable=0;strokeColor=#b46504;overflow=hidden;fillColor=#fad7ac;top=0;left=0;bottom=0;right=0;pointerEvents=1;sketch=1;curveFitting=1;jiggle=2;" parent="98H9lZZ7wIg3jAL6WraC-150" vertex="1">
          <mxGeometry width="20" height="18" as="geometry">
            <mxRectangle width="20" height="18" as="alternateBounds" />
          </mxGeometry>
        </mxCell>
        <mxCell id="98H9lZZ7wIg3jAL6WraC-152" value="" style="shape=partialRectangle;html=1;whiteSpace=wrap;connectable=0;strokeColor=#b46504;overflow=hidden;fillColor=#fad7ac;top=0;left=0;bottom=0;right=0;pointerEvents=1;sketch=1;curveFitting=1;jiggle=2;" parent="98H9lZZ7wIg3jAL6WraC-150" vertex="1">
          <mxGeometry x="20" width="21" height="18" as="geometry">
            <mxRectangle width="21" height="18" as="alternateBounds" />
          </mxGeometry>
        </mxCell>
        <mxCell id="98H9lZZ7wIg3jAL6WraC-153" value="" style="shape=partialRectangle;html=1;whiteSpace=wrap;connectable=0;strokeColor=#b46504;overflow=hidden;fillColor=#fad7ac;top=0;left=0;bottom=0;right=0;pointerEvents=1;sketch=1;curveFitting=1;jiggle=2;" parent="98H9lZZ7wIg3jAL6WraC-150" vertex="1">
          <mxGeometry x="41" width="20" height="18" as="geometry">
            <mxRectangle width="20" height="18" as="alternateBounds" />
          </mxGeometry>
        </mxCell>
        <mxCell id="98H9lZZ7wIg3jAL6WraC-154" value="" style="shape=partialRectangle;html=1;whiteSpace=wrap;connectable=0;strokeColor=inherit;overflow=hidden;fillColor=none;top=0;left=0;bottom=0;right=0;pointerEvents=1;" parent="98H9lZZ7wIg3jAL6WraC-150" vertex="1">
          <mxGeometry x="61" width="21" height="18" as="geometry">
            <mxRectangle width="21" height="18" as="alternateBounds" />
          </mxGeometry>
        </mxCell>
        <mxCell id="98H9lZZ7wIg3jAL6WraC-155" value="" style="shape=partialRectangle;html=1;whiteSpace=wrap;connectable=0;strokeColor=inherit;overflow=hidden;fillColor=none;top=0;left=0;bottom=0;right=0;pointerEvents=1;" parent="98H9lZZ7wIg3jAL6WraC-150" vertex="1">
          <mxGeometry x="82" width="20" height="18" as="geometry">
            <mxRectangle width="20" height="18" as="alternateBounds" />
          </mxGeometry>
        </mxCell>
        <mxCell id="98H9lZZ7wIg3jAL6WraC-156" value="" style="shape=partialRectangle;html=1;whiteSpace=wrap;connectable=0;strokeColor=inherit;overflow=hidden;fillColor=none;top=0;left=0;bottom=0;right=0;pointerEvents=1;" parent="98H9lZZ7wIg3jAL6WraC-150" vertex="1">
          <mxGeometry x="102" width="21" height="18" as="geometry">
            <mxRectangle width="21" height="18" as="alternateBounds" />
          </mxGeometry>
        </mxCell>
        <mxCell id="98H9lZZ7wIg3jAL6WraC-157" value="" style="shape=partialRectangle;html=1;whiteSpace=wrap;connectable=0;strokeColor=inherit;overflow=hidden;fillColor=none;top=0;left=0;bottom=0;right=0;pointerEvents=1;" parent="98H9lZZ7wIg3jAL6WraC-150" vertex="1">
          <mxGeometry x="123" width="20" height="18" as="geometry">
            <mxRectangle width="20" height="18" as="alternateBounds" />
          </mxGeometry>
        </mxCell>
        <mxCell id="98H9lZZ7wIg3jAL6WraC-158" value="" style="shape=partialRectangle;html=1;whiteSpace=wrap;connectable=0;strokeColor=inherit;overflow=hidden;fillColor=none;top=0;left=0;bottom=0;right=0;pointerEvents=1;" parent="98H9lZZ7wIg3jAL6WraC-150" vertex="1">
          <mxGeometry x="143" width="21" height="18" as="geometry">
            <mxRectangle width="21" height="18" as="alternateBounds" />
          </mxGeometry>
        </mxCell>
        <mxCell id="98H9lZZ7wIg3jAL6WraC-159" value="" style="shape=partialRectangle;html=1;whiteSpace=wrap;connectable=0;strokeColor=inherit;overflow=hidden;fillColor=none;top=0;left=0;bottom=0;right=0;pointerEvents=1;" parent="98H9lZZ7wIg3jAL6WraC-150" vertex="1">
          <mxGeometry x="164" width="20" height="18" as="geometry">
            <mxRectangle width="20" height="18" as="alternateBounds" />
          </mxGeometry>
        </mxCell>
        <mxCell id="98H9lZZ7wIg3jAL6WraC-160" value="" style="shape=tableRow;horizontal=0;startSize=0;swimlaneHead=0;swimlaneBody=0;strokeColor=inherit;top=0;left=0;bottom=0;right=0;collapsible=0;dropTarget=0;fillColor=none;points=[[0,0.5],[1,0.5]];portConstraint=eastwest;" parent="98H9lZZ7wIg3jAL6WraC-109" vertex="1">
          <mxGeometry y="89" width="184" height="18" as="geometry" />
        </mxCell>
        <mxCell id="98H9lZZ7wIg3jAL6WraC-161" value="" style="shape=partialRectangle;html=1;whiteSpace=wrap;connectable=0;strokeColor=#b46504;overflow=hidden;fillColor=#fad7ac;top=0;left=0;bottom=0;right=0;pointerEvents=1;sketch=1;curveFitting=1;jiggle=2;" parent="98H9lZZ7wIg3jAL6WraC-160" vertex="1">
          <mxGeometry width="20" height="18" as="geometry">
            <mxRectangle width="20" height="18" as="alternateBounds" />
          </mxGeometry>
        </mxCell>
        <mxCell id="98H9lZZ7wIg3jAL6WraC-162" value="" style="shape=partialRectangle;html=1;whiteSpace=wrap;connectable=0;strokeColor=#b46504;overflow=hidden;fillColor=#fad7ac;top=0;left=0;bottom=0;right=0;pointerEvents=1;sketch=1;curveFitting=1;jiggle=2;" parent="98H9lZZ7wIg3jAL6WraC-160" vertex="1">
          <mxGeometry x="20" width="21" height="18" as="geometry">
            <mxRectangle width="21" height="18" as="alternateBounds" />
          </mxGeometry>
        </mxCell>
        <mxCell id="98H9lZZ7wIg3jAL6WraC-163" value="" style="shape=partialRectangle;html=1;whiteSpace=wrap;connectable=0;strokeColor=#b46504;overflow=hidden;fillColor=#fad7ac;top=0;left=0;bottom=0;right=0;pointerEvents=1;sketch=1;curveFitting=1;jiggle=2;" parent="98H9lZZ7wIg3jAL6WraC-160" vertex="1">
          <mxGeometry x="41" width="20" height="18" as="geometry">
            <mxRectangle width="20" height="18" as="alternateBounds" />
          </mxGeometry>
        </mxCell>
        <mxCell id="98H9lZZ7wIg3jAL6WraC-164" value="" style="shape=partialRectangle;html=1;whiteSpace=wrap;connectable=0;strokeColor=inherit;overflow=hidden;fillColor=none;top=0;left=0;bottom=0;right=0;pointerEvents=1;" parent="98H9lZZ7wIg3jAL6WraC-160" vertex="1">
          <mxGeometry x="61" width="21" height="18" as="geometry">
            <mxRectangle width="21" height="18" as="alternateBounds" />
          </mxGeometry>
        </mxCell>
        <mxCell id="98H9lZZ7wIg3jAL6WraC-165" value="" style="shape=partialRectangle;html=1;whiteSpace=wrap;connectable=0;strokeColor=inherit;overflow=hidden;fillColor=none;top=0;left=0;bottom=0;right=0;pointerEvents=1;" parent="98H9lZZ7wIg3jAL6WraC-160" vertex="1">
          <mxGeometry x="82" width="20" height="18" as="geometry">
            <mxRectangle width="20" height="18" as="alternateBounds" />
          </mxGeometry>
        </mxCell>
        <mxCell id="98H9lZZ7wIg3jAL6WraC-166" value="" style="shape=partialRectangle;html=1;whiteSpace=wrap;connectable=0;strokeColor=inherit;overflow=hidden;fillColor=none;top=0;left=0;bottom=0;right=0;pointerEvents=1;" parent="98H9lZZ7wIg3jAL6WraC-160" vertex="1">
          <mxGeometry x="102" width="21" height="18" as="geometry">
            <mxRectangle width="21" height="18" as="alternateBounds" />
          </mxGeometry>
        </mxCell>
        <mxCell id="98H9lZZ7wIg3jAL6WraC-167" value="" style="shape=partialRectangle;html=1;whiteSpace=wrap;connectable=0;strokeColor=inherit;overflow=hidden;fillColor=none;top=0;left=0;bottom=0;right=0;pointerEvents=1;" parent="98H9lZZ7wIg3jAL6WraC-160" vertex="1">
          <mxGeometry x="123" width="20" height="18" as="geometry">
            <mxRectangle width="20" height="18" as="alternateBounds" />
          </mxGeometry>
        </mxCell>
        <mxCell id="98H9lZZ7wIg3jAL6WraC-168" value="" style="shape=partialRectangle;html=1;whiteSpace=wrap;connectable=0;strokeColor=inherit;overflow=hidden;fillColor=none;top=0;left=0;bottom=0;right=0;pointerEvents=1;" parent="98H9lZZ7wIg3jAL6WraC-160" vertex="1">
          <mxGeometry x="143" width="21" height="18" as="geometry">
            <mxRectangle width="21" height="18" as="alternateBounds" />
          </mxGeometry>
        </mxCell>
        <mxCell id="98H9lZZ7wIg3jAL6WraC-169" value="" style="shape=partialRectangle;html=1;whiteSpace=wrap;connectable=0;strokeColor=inherit;overflow=hidden;fillColor=none;top=0;left=0;bottom=0;right=0;pointerEvents=1;" parent="98H9lZZ7wIg3jAL6WraC-160" vertex="1">
          <mxGeometry x="164" width="20" height="18" as="geometry">
            <mxRectangle width="20" height="18" as="alternateBounds" />
          </mxGeometry>
        </mxCell>
        <mxCell id="98H9lZZ7wIg3jAL6WraC-170" value="" style="shape=tableRow;horizontal=0;startSize=0;swimlaneHead=0;swimlaneBody=0;strokeColor=inherit;top=0;left=0;bottom=0;right=0;collapsible=0;dropTarget=0;fillColor=none;points=[[0,0.5],[1,0.5]];portConstraint=eastwest;" parent="98H9lZZ7wIg3jAL6WraC-109" vertex="1">
          <mxGeometry y="107" width="184" height="17" as="geometry" />
        </mxCell>
        <mxCell id="98H9lZZ7wIg3jAL6WraC-171" value="" style="shape=partialRectangle;html=1;whiteSpace=wrap;connectable=0;strokeColor=#b46504;overflow=hidden;fillColor=#fad7ac;top=0;left=0;bottom=0;right=0;pointerEvents=1;sketch=1;curveFitting=1;jiggle=2;" parent="98H9lZZ7wIg3jAL6WraC-170" vertex="1">
          <mxGeometry width="20" height="17" as="geometry">
            <mxRectangle width="20" height="17" as="alternateBounds" />
          </mxGeometry>
        </mxCell>
        <mxCell id="98H9lZZ7wIg3jAL6WraC-172" value="" style="shape=partialRectangle;html=1;whiteSpace=wrap;connectable=0;strokeColor=#b46504;overflow=hidden;fillColor=#fad7ac;top=0;left=0;bottom=0;right=0;pointerEvents=1;sketch=1;curveFitting=1;jiggle=2;" parent="98H9lZZ7wIg3jAL6WraC-170" vertex="1">
          <mxGeometry x="20" width="21" height="17" as="geometry">
            <mxRectangle width="21" height="17" as="alternateBounds" />
          </mxGeometry>
        </mxCell>
        <mxCell id="98H9lZZ7wIg3jAL6WraC-173" value="" style="shape=partialRectangle;html=1;whiteSpace=wrap;connectable=0;strokeColor=#b46504;overflow=hidden;fillColor=#fad7ac;top=0;left=0;bottom=0;right=0;pointerEvents=1;sketch=1;curveFitting=1;jiggle=2;" parent="98H9lZZ7wIg3jAL6WraC-170" vertex="1">
          <mxGeometry x="41" width="20" height="17" as="geometry">
            <mxRectangle width="20" height="17" as="alternateBounds" />
          </mxGeometry>
        </mxCell>
        <mxCell id="98H9lZZ7wIg3jAL6WraC-174" value="" style="shape=partialRectangle;html=1;whiteSpace=wrap;connectable=0;strokeColor=inherit;overflow=hidden;fillColor=none;top=0;left=0;bottom=0;right=0;pointerEvents=1;" parent="98H9lZZ7wIg3jAL6WraC-170" vertex="1">
          <mxGeometry x="61" width="21" height="17" as="geometry">
            <mxRectangle width="21" height="17" as="alternateBounds" />
          </mxGeometry>
        </mxCell>
        <mxCell id="98H9lZZ7wIg3jAL6WraC-175" value="" style="shape=partialRectangle;html=1;whiteSpace=wrap;connectable=0;strokeColor=inherit;overflow=hidden;fillColor=none;top=0;left=0;bottom=0;right=0;pointerEvents=1;" parent="98H9lZZ7wIg3jAL6WraC-170" vertex="1">
          <mxGeometry x="82" width="20" height="17" as="geometry">
            <mxRectangle width="20" height="17" as="alternateBounds" />
          </mxGeometry>
        </mxCell>
        <mxCell id="98H9lZZ7wIg3jAL6WraC-176" value="" style="shape=partialRectangle;html=1;whiteSpace=wrap;connectable=0;strokeColor=inherit;overflow=hidden;fillColor=none;top=0;left=0;bottom=0;right=0;pointerEvents=1;" parent="98H9lZZ7wIg3jAL6WraC-170" vertex="1">
          <mxGeometry x="102" width="21" height="17" as="geometry">
            <mxRectangle width="21" height="17" as="alternateBounds" />
          </mxGeometry>
        </mxCell>
        <mxCell id="98H9lZZ7wIg3jAL6WraC-177" value="" style="shape=partialRectangle;html=1;whiteSpace=wrap;connectable=0;strokeColor=inherit;overflow=hidden;fillColor=none;top=0;left=0;bottom=0;right=0;pointerEvents=1;" parent="98H9lZZ7wIg3jAL6WraC-170" vertex="1">
          <mxGeometry x="123" width="20" height="17" as="geometry">
            <mxRectangle width="20" height="17" as="alternateBounds" />
          </mxGeometry>
        </mxCell>
        <mxCell id="98H9lZZ7wIg3jAL6WraC-178" value="" style="shape=partialRectangle;html=1;whiteSpace=wrap;connectable=0;strokeColor=inherit;overflow=hidden;fillColor=none;top=0;left=0;bottom=0;right=0;pointerEvents=1;" parent="98H9lZZ7wIg3jAL6WraC-170" vertex="1">
          <mxGeometry x="143" width="21" height="17" as="geometry">
            <mxRectangle width="21" height="17" as="alternateBounds" />
          </mxGeometry>
        </mxCell>
        <mxCell id="98H9lZZ7wIg3jAL6WraC-179" value="" style="shape=partialRectangle;html=1;whiteSpace=wrap;connectable=0;strokeColor=inherit;overflow=hidden;fillColor=none;top=0;left=0;bottom=0;right=0;pointerEvents=1;" parent="98H9lZZ7wIg3jAL6WraC-170" vertex="1">
          <mxGeometry x="164" width="20" height="17" as="geometry">
            <mxRectangle width="20" height="17" as="alternateBounds" />
          </mxGeometry>
        </mxCell>
        <mxCell id="98H9lZZ7wIg3jAL6WraC-180" value="" style="shape=tableRow;horizontal=0;startSize=0;swimlaneHead=0;swimlaneBody=0;strokeColor=inherit;top=0;left=0;bottom=0;right=0;collapsible=0;dropTarget=0;fillColor=none;points=[[0,0.5],[1,0.5]];portConstraint=eastwest;" parent="98H9lZZ7wIg3jAL6WraC-109" vertex="1">
          <mxGeometry y="124" width="184" height="18" as="geometry" />
        </mxCell>
        <mxCell id="98H9lZZ7wIg3jAL6WraC-181" value="" style="shape=partialRectangle;html=1;whiteSpace=wrap;connectable=0;strokeColor=#b46504;overflow=hidden;fillColor=#fad7ac;top=0;left=0;bottom=0;right=0;pointerEvents=1;sketch=1;curveFitting=1;jiggle=2;" parent="98H9lZZ7wIg3jAL6WraC-180" vertex="1">
          <mxGeometry width="20" height="18" as="geometry">
            <mxRectangle width="20" height="18" as="alternateBounds" />
          </mxGeometry>
        </mxCell>
        <mxCell id="98H9lZZ7wIg3jAL6WraC-182" value="" style="shape=partialRectangle;html=1;whiteSpace=wrap;connectable=0;strokeColor=#b46504;overflow=hidden;fillColor=#fad7ac;top=0;left=0;bottom=0;right=0;pointerEvents=1;sketch=1;curveFitting=1;jiggle=2;" parent="98H9lZZ7wIg3jAL6WraC-180" vertex="1">
          <mxGeometry x="20" width="21" height="18" as="geometry">
            <mxRectangle width="21" height="18" as="alternateBounds" />
          </mxGeometry>
        </mxCell>
        <mxCell id="98H9lZZ7wIg3jAL6WraC-183" value="" style="shape=partialRectangle;html=1;whiteSpace=wrap;connectable=0;strokeColor=#b46504;overflow=hidden;fillColor=#fad7ac;top=0;left=0;bottom=0;right=0;pointerEvents=1;sketch=1;curveFitting=1;jiggle=2;" parent="98H9lZZ7wIg3jAL6WraC-180" vertex="1">
          <mxGeometry x="41" width="20" height="18" as="geometry">
            <mxRectangle width="20" height="18" as="alternateBounds" />
          </mxGeometry>
        </mxCell>
        <mxCell id="98H9lZZ7wIg3jAL6WraC-184" value="" style="shape=partialRectangle;html=1;whiteSpace=wrap;connectable=0;strokeColor=inherit;overflow=hidden;fillColor=none;top=0;left=0;bottom=0;right=0;pointerEvents=1;" parent="98H9lZZ7wIg3jAL6WraC-180" vertex="1">
          <mxGeometry x="61" width="21" height="18" as="geometry">
            <mxRectangle width="21" height="18" as="alternateBounds" />
          </mxGeometry>
        </mxCell>
        <mxCell id="98H9lZZ7wIg3jAL6WraC-185" value="" style="shape=partialRectangle;html=1;whiteSpace=wrap;connectable=0;strokeColor=inherit;overflow=hidden;fillColor=none;top=0;left=0;bottom=0;right=0;pointerEvents=1;" parent="98H9lZZ7wIg3jAL6WraC-180" vertex="1">
          <mxGeometry x="82" width="20" height="18" as="geometry">
            <mxRectangle width="20" height="18" as="alternateBounds" />
          </mxGeometry>
        </mxCell>
        <mxCell id="98H9lZZ7wIg3jAL6WraC-186" value="" style="shape=partialRectangle;html=1;whiteSpace=wrap;connectable=0;strokeColor=inherit;overflow=hidden;fillColor=none;top=0;left=0;bottom=0;right=0;pointerEvents=1;" parent="98H9lZZ7wIg3jAL6WraC-180" vertex="1">
          <mxGeometry x="102" width="21" height="18" as="geometry">
            <mxRectangle width="21" height="18" as="alternateBounds" />
          </mxGeometry>
        </mxCell>
        <mxCell id="98H9lZZ7wIg3jAL6WraC-187" value="" style="shape=partialRectangle;html=1;whiteSpace=wrap;connectable=0;strokeColor=inherit;overflow=hidden;fillColor=none;top=0;left=0;bottom=0;right=0;pointerEvents=1;" parent="98H9lZZ7wIg3jAL6WraC-180" vertex="1">
          <mxGeometry x="123" width="20" height="18" as="geometry">
            <mxRectangle width="20" height="18" as="alternateBounds" />
          </mxGeometry>
        </mxCell>
        <mxCell id="98H9lZZ7wIg3jAL6WraC-188" value="" style="shape=partialRectangle;html=1;whiteSpace=wrap;connectable=0;strokeColor=inherit;overflow=hidden;fillColor=none;top=0;left=0;bottom=0;right=0;pointerEvents=1;" parent="98H9lZZ7wIg3jAL6WraC-180" vertex="1">
          <mxGeometry x="143" width="21" height="18" as="geometry">
            <mxRectangle width="21" height="18" as="alternateBounds" />
          </mxGeometry>
        </mxCell>
        <mxCell id="98H9lZZ7wIg3jAL6WraC-189" value="" style="shape=partialRectangle;html=1;whiteSpace=wrap;connectable=0;strokeColor=inherit;overflow=hidden;fillColor=none;top=0;left=0;bottom=0;right=0;pointerEvents=1;" parent="98H9lZZ7wIg3jAL6WraC-180" vertex="1">
          <mxGeometry x="164" width="20" height="18" as="geometry">
            <mxRectangle width="20" height="18" as="alternateBounds" />
          </mxGeometry>
        </mxCell>
        <mxCell id="98H9lZZ7wIg3jAL6WraC-190" value="" style="shape=tableRow;horizontal=0;startSize=0;swimlaneHead=0;swimlaneBody=0;strokeColor=inherit;top=0;left=0;bottom=0;right=0;collapsible=0;dropTarget=0;fillColor=none;points=[[0,0.5],[1,0.5]];portConstraint=eastwest;" parent="98H9lZZ7wIg3jAL6WraC-109" vertex="1">
          <mxGeometry y="142" width="184" height="18" as="geometry" />
        </mxCell>
        <mxCell id="98H9lZZ7wIg3jAL6WraC-191" value="" style="shape=partialRectangle;html=1;whiteSpace=wrap;connectable=0;strokeColor=#b46504;overflow=hidden;fillColor=#fad7ac;top=0;left=0;bottom=0;right=0;pointerEvents=1;sketch=1;curveFitting=1;jiggle=2;" parent="98H9lZZ7wIg3jAL6WraC-190" vertex="1">
          <mxGeometry width="20" height="18" as="geometry">
            <mxRectangle width="20" height="18" as="alternateBounds" />
          </mxGeometry>
        </mxCell>
        <mxCell id="98H9lZZ7wIg3jAL6WraC-192" value="" style="shape=partialRectangle;html=1;whiteSpace=wrap;connectable=0;strokeColor=#b46504;overflow=hidden;fillColor=#fad7ac;top=0;left=0;bottom=0;right=0;pointerEvents=1;sketch=1;curveFitting=1;jiggle=2;" parent="98H9lZZ7wIg3jAL6WraC-190" vertex="1">
          <mxGeometry x="20" width="21" height="18" as="geometry">
            <mxRectangle width="21" height="18" as="alternateBounds" />
          </mxGeometry>
        </mxCell>
        <mxCell id="98H9lZZ7wIg3jAL6WraC-193" value="" style="shape=partialRectangle;html=1;whiteSpace=wrap;connectable=0;strokeColor=#b46504;overflow=hidden;fillColor=#fad7ac;top=0;left=0;bottom=0;right=0;pointerEvents=1;sketch=1;curveFitting=1;jiggle=2;" parent="98H9lZZ7wIg3jAL6WraC-190" vertex="1">
          <mxGeometry x="41" width="20" height="18" as="geometry">
            <mxRectangle width="20" height="18" as="alternateBounds" />
          </mxGeometry>
        </mxCell>
        <mxCell id="98H9lZZ7wIg3jAL6WraC-194" value="" style="shape=partialRectangle;html=1;whiteSpace=wrap;connectable=0;strokeColor=inherit;overflow=hidden;fillColor=none;top=0;left=0;bottom=0;right=0;pointerEvents=1;" parent="98H9lZZ7wIg3jAL6WraC-190" vertex="1">
          <mxGeometry x="61" width="21" height="18" as="geometry">
            <mxRectangle width="21" height="18" as="alternateBounds" />
          </mxGeometry>
        </mxCell>
        <mxCell id="98H9lZZ7wIg3jAL6WraC-195" value="" style="shape=partialRectangle;html=1;whiteSpace=wrap;connectable=0;strokeColor=inherit;overflow=hidden;fillColor=none;top=0;left=0;bottom=0;right=0;pointerEvents=1;" parent="98H9lZZ7wIg3jAL6WraC-190" vertex="1">
          <mxGeometry x="82" width="20" height="18" as="geometry">
            <mxRectangle width="20" height="18" as="alternateBounds" />
          </mxGeometry>
        </mxCell>
        <mxCell id="98H9lZZ7wIg3jAL6WraC-196" value="" style="shape=partialRectangle;html=1;whiteSpace=wrap;connectable=0;strokeColor=inherit;overflow=hidden;fillColor=none;top=0;left=0;bottom=0;right=0;pointerEvents=1;" parent="98H9lZZ7wIg3jAL6WraC-190" vertex="1">
          <mxGeometry x="102" width="21" height="18" as="geometry">
            <mxRectangle width="21" height="18" as="alternateBounds" />
          </mxGeometry>
        </mxCell>
        <mxCell id="98H9lZZ7wIg3jAL6WraC-197" value="" style="shape=partialRectangle;html=1;whiteSpace=wrap;connectable=0;strokeColor=inherit;overflow=hidden;fillColor=none;top=0;left=0;bottom=0;right=0;pointerEvents=1;" parent="98H9lZZ7wIg3jAL6WraC-190" vertex="1">
          <mxGeometry x="123" width="20" height="18" as="geometry">
            <mxRectangle width="20" height="18" as="alternateBounds" />
          </mxGeometry>
        </mxCell>
        <mxCell id="98H9lZZ7wIg3jAL6WraC-198" value="" style="shape=partialRectangle;html=1;whiteSpace=wrap;connectable=0;strokeColor=inherit;overflow=hidden;fillColor=none;top=0;left=0;bottom=0;right=0;pointerEvents=1;" parent="98H9lZZ7wIg3jAL6WraC-190" vertex="1">
          <mxGeometry x="143" width="21" height="18" as="geometry">
            <mxRectangle width="21" height="18" as="alternateBounds" />
          </mxGeometry>
        </mxCell>
        <mxCell id="98H9lZZ7wIg3jAL6WraC-199" value="" style="shape=partialRectangle;html=1;whiteSpace=wrap;connectable=0;strokeColor=inherit;overflow=hidden;fillColor=none;top=0;left=0;bottom=0;right=0;pointerEvents=1;" parent="98H9lZZ7wIg3jAL6WraC-190" vertex="1">
          <mxGeometry x="164" width="20" height="18" as="geometry">
            <mxRectangle width="20" height="18" as="alternateBounds" />
          </mxGeometry>
        </mxCell>
        <mxCell id="98H9lZZ7wIg3jAL6WraC-200" value="" style="shape=table;startSize=0;container=1;collapsible=0;childLayout=tableLayout;" parent="1" vertex="1">
          <mxGeometry x="710" y="210" width="184" height="160" as="geometry" />
        </mxCell>
        <mxCell id="98H9lZZ7wIg3jAL6WraC-201" value="" style="shape=tableRow;horizontal=0;startSize=0;swimlaneHead=0;swimlaneBody=0;strokeColor=inherit;top=0;left=0;bottom=0;right=0;collapsible=0;dropTarget=0;fillColor=none;points=[[0,0.5],[1,0.5]];portConstraint=eastwest;" parent="98H9lZZ7wIg3jAL6WraC-200" vertex="1">
          <mxGeometry width="184" height="18" as="geometry" />
        </mxCell>
        <mxCell id="98H9lZZ7wIg3jAL6WraC-202" value="0" style="shape=partialRectangle;html=1;whiteSpace=wrap;connectable=0;strokeColor=#b46504;overflow=hidden;fillColor=#fad7ac;top=0;left=0;bottom=0;right=0;pointerEvents=1;sketch=1;curveFitting=1;jiggle=2;" parent="98H9lZZ7wIg3jAL6WraC-201" vertex="1">
          <mxGeometry width="20" height="18" as="geometry">
            <mxRectangle width="20" height="18" as="alternateBounds" />
          </mxGeometry>
        </mxCell>
        <mxCell id="98H9lZZ7wIg3jAL6WraC-203" value="3" style="shape=partialRectangle;html=1;whiteSpace=wrap;connectable=0;strokeColor=#b46504;overflow=hidden;fillColor=#fad7ac;top=0;left=0;bottom=0;right=0;pointerEvents=1;sketch=1;curveFitting=1;jiggle=2;" parent="98H9lZZ7wIg3jAL6WraC-201" vertex="1">
          <mxGeometry x="20" width="21" height="18" as="geometry">
            <mxRectangle width="21" height="18" as="alternateBounds" />
          </mxGeometry>
        </mxCell>
        <mxCell id="98H9lZZ7wIg3jAL6WraC-204" value="6" style="shape=partialRectangle;html=1;whiteSpace=wrap;connectable=0;strokeColor=#b46504;overflow=hidden;fillColor=#fad7ac;top=0;left=0;bottom=0;right=0;pointerEvents=1;sketch=1;curveFitting=1;jiggle=2;" parent="98H9lZZ7wIg3jAL6WraC-201" vertex="1">
          <mxGeometry x="41" width="20" height="18" as="geometry">
            <mxRectangle width="20" height="18" as="alternateBounds" />
          </mxGeometry>
        </mxCell>
        <mxCell id="98H9lZZ7wIg3jAL6WraC-205" value="" style="shape=partialRectangle;html=1;whiteSpace=wrap;connectable=0;strokeColor=inherit;overflow=hidden;fillColor=none;top=0;left=0;bottom=0;right=0;pointerEvents=1;" parent="98H9lZZ7wIg3jAL6WraC-201" vertex="1">
          <mxGeometry x="61" width="21" height="18" as="geometry">
            <mxRectangle width="21" height="18" as="alternateBounds" />
          </mxGeometry>
        </mxCell>
        <mxCell id="98H9lZZ7wIg3jAL6WraC-206" value="" style="shape=partialRectangle;html=1;whiteSpace=wrap;connectable=0;strokeColor=inherit;overflow=hidden;fillColor=none;top=0;left=0;bottom=0;right=0;pointerEvents=1;" parent="98H9lZZ7wIg3jAL6WraC-201" vertex="1">
          <mxGeometry x="82" width="20" height="18" as="geometry">
            <mxRectangle width="20" height="18" as="alternateBounds" />
          </mxGeometry>
        </mxCell>
        <mxCell id="98H9lZZ7wIg3jAL6WraC-207" value="" style="shape=partialRectangle;html=1;whiteSpace=wrap;connectable=0;strokeColor=inherit;overflow=hidden;fillColor=none;top=0;left=0;bottom=0;right=0;pointerEvents=1;" parent="98H9lZZ7wIg3jAL6WraC-201" vertex="1">
          <mxGeometry x="102" width="21" height="18" as="geometry">
            <mxRectangle width="21" height="18" as="alternateBounds" />
          </mxGeometry>
        </mxCell>
        <mxCell id="98H9lZZ7wIg3jAL6WraC-208" value="" style="shape=partialRectangle;html=1;whiteSpace=wrap;connectable=0;strokeColor=inherit;overflow=hidden;fillColor=none;top=0;left=0;bottom=0;right=0;pointerEvents=1;" parent="98H9lZZ7wIg3jAL6WraC-201" vertex="1">
          <mxGeometry x="123" width="20" height="18" as="geometry">
            <mxRectangle width="20" height="18" as="alternateBounds" />
          </mxGeometry>
        </mxCell>
        <mxCell id="98H9lZZ7wIg3jAL6WraC-209" value="" style="shape=partialRectangle;html=1;whiteSpace=wrap;connectable=0;strokeColor=inherit;overflow=hidden;fillColor=none;top=0;left=0;bottom=0;right=0;pointerEvents=1;" parent="98H9lZZ7wIg3jAL6WraC-201" vertex="1">
          <mxGeometry x="143" width="21" height="18" as="geometry">
            <mxRectangle width="21" height="18" as="alternateBounds" />
          </mxGeometry>
        </mxCell>
        <mxCell id="98H9lZZ7wIg3jAL6WraC-210" value="" style="shape=partialRectangle;html=1;whiteSpace=wrap;connectable=0;strokeColor=inherit;overflow=hidden;fillColor=none;top=0;left=0;bottom=0;right=0;pointerEvents=1;" parent="98H9lZZ7wIg3jAL6WraC-201" vertex="1">
          <mxGeometry x="164" width="20" height="18" as="geometry">
            <mxRectangle width="20" height="18" as="alternateBounds" />
          </mxGeometry>
        </mxCell>
        <mxCell id="98H9lZZ7wIg3jAL6WraC-211" value="" style="shape=tableRow;horizontal=0;startSize=0;swimlaneHead=0;swimlaneBody=0;strokeColor=inherit;top=0;left=0;bottom=0;right=0;collapsible=0;dropTarget=0;fillColor=none;points=[[0,0.5],[1,0.5]];portConstraint=eastwest;" parent="98H9lZZ7wIg3jAL6WraC-200" vertex="1">
          <mxGeometry y="18" width="184" height="18" as="geometry" />
        </mxCell>
        <mxCell id="98H9lZZ7wIg3jAL6WraC-212" value="1" style="shape=partialRectangle;html=1;whiteSpace=wrap;connectable=0;strokeColor=#b46504;overflow=hidden;fillColor=#fad7ac;top=0;left=0;bottom=0;right=0;pointerEvents=1;sketch=1;curveFitting=1;jiggle=2;" parent="98H9lZZ7wIg3jAL6WraC-211" vertex="1">
          <mxGeometry width="20" height="18" as="geometry">
            <mxRectangle width="20" height="18" as="alternateBounds" />
          </mxGeometry>
        </mxCell>
        <mxCell id="98H9lZZ7wIg3jAL6WraC-213" value="4" style="shape=partialRectangle;html=1;whiteSpace=wrap;connectable=0;strokeColor=#b46504;overflow=hidden;fillColor=#fad7ac;top=0;left=0;bottom=0;right=0;pointerEvents=1;sketch=1;curveFitting=1;jiggle=2;" parent="98H9lZZ7wIg3jAL6WraC-211" vertex="1">
          <mxGeometry x="20" width="21" height="18" as="geometry">
            <mxRectangle width="21" height="18" as="alternateBounds" />
          </mxGeometry>
        </mxCell>
        <mxCell id="98H9lZZ7wIg3jAL6WraC-214" value="7" style="shape=partialRectangle;html=1;whiteSpace=wrap;connectable=0;strokeColor=#b46504;overflow=hidden;fillColor=#fad7ac;top=0;left=0;bottom=0;right=0;pointerEvents=1;sketch=1;curveFitting=1;jiggle=2;" parent="98H9lZZ7wIg3jAL6WraC-211" vertex="1">
          <mxGeometry x="41" width="20" height="18" as="geometry">
            <mxRectangle width="20" height="18" as="alternateBounds" />
          </mxGeometry>
        </mxCell>
        <mxCell id="98H9lZZ7wIg3jAL6WraC-215" value="" style="shape=partialRectangle;html=1;whiteSpace=wrap;connectable=0;strokeColor=inherit;overflow=hidden;fillColor=none;top=0;left=0;bottom=0;right=0;pointerEvents=1;" parent="98H9lZZ7wIg3jAL6WraC-211" vertex="1">
          <mxGeometry x="61" width="21" height="18" as="geometry">
            <mxRectangle width="21" height="18" as="alternateBounds" />
          </mxGeometry>
        </mxCell>
        <mxCell id="98H9lZZ7wIg3jAL6WraC-216" value="" style="shape=partialRectangle;html=1;whiteSpace=wrap;connectable=0;strokeColor=inherit;overflow=hidden;fillColor=none;top=0;left=0;bottom=0;right=0;pointerEvents=1;" parent="98H9lZZ7wIg3jAL6WraC-211" vertex="1">
          <mxGeometry x="82" width="20" height="18" as="geometry">
            <mxRectangle width="20" height="18" as="alternateBounds" />
          </mxGeometry>
        </mxCell>
        <mxCell id="98H9lZZ7wIg3jAL6WraC-217" value="" style="shape=partialRectangle;html=1;whiteSpace=wrap;connectable=0;strokeColor=inherit;overflow=hidden;fillColor=none;top=0;left=0;bottom=0;right=0;pointerEvents=1;" parent="98H9lZZ7wIg3jAL6WraC-211" vertex="1">
          <mxGeometry x="102" width="21" height="18" as="geometry">
            <mxRectangle width="21" height="18" as="alternateBounds" />
          </mxGeometry>
        </mxCell>
        <mxCell id="98H9lZZ7wIg3jAL6WraC-218" value="" style="shape=partialRectangle;html=1;whiteSpace=wrap;connectable=0;strokeColor=inherit;overflow=hidden;fillColor=none;top=0;left=0;bottom=0;right=0;pointerEvents=1;" parent="98H9lZZ7wIg3jAL6WraC-211" vertex="1">
          <mxGeometry x="123" width="20" height="18" as="geometry">
            <mxRectangle width="20" height="18" as="alternateBounds" />
          </mxGeometry>
        </mxCell>
        <mxCell id="98H9lZZ7wIg3jAL6WraC-219" value="" style="shape=partialRectangle;html=1;whiteSpace=wrap;connectable=0;strokeColor=inherit;overflow=hidden;fillColor=none;top=0;left=0;bottom=0;right=0;pointerEvents=1;" parent="98H9lZZ7wIg3jAL6WraC-211" vertex="1">
          <mxGeometry x="143" width="21" height="18" as="geometry">
            <mxRectangle width="21" height="18" as="alternateBounds" />
          </mxGeometry>
        </mxCell>
        <mxCell id="98H9lZZ7wIg3jAL6WraC-220" value="" style="shape=partialRectangle;html=1;whiteSpace=wrap;connectable=0;strokeColor=inherit;overflow=hidden;fillColor=none;top=0;left=0;bottom=0;right=0;pointerEvents=1;" parent="98H9lZZ7wIg3jAL6WraC-211" vertex="1">
          <mxGeometry x="164" width="20" height="18" as="geometry">
            <mxRectangle width="20" height="18" as="alternateBounds" />
          </mxGeometry>
        </mxCell>
        <mxCell id="98H9lZZ7wIg3jAL6WraC-221" value="" style="shape=tableRow;horizontal=0;startSize=0;swimlaneHead=0;swimlaneBody=0;strokeColor=inherit;top=0;left=0;bottom=0;right=0;collapsible=0;dropTarget=0;fillColor=none;points=[[0,0.5],[1,0.5]];portConstraint=eastwest;" parent="98H9lZZ7wIg3jAL6WraC-200" vertex="1">
          <mxGeometry y="36" width="184" height="17" as="geometry" />
        </mxCell>
        <mxCell id="98H9lZZ7wIg3jAL6WraC-222" value="2" style="shape=partialRectangle;html=1;whiteSpace=wrap;connectable=0;strokeColor=#b46504;overflow=hidden;fillColor=#fad7ac;top=0;left=0;bottom=0;right=0;pointerEvents=1;sketch=1;curveFitting=1;jiggle=2;" parent="98H9lZZ7wIg3jAL6WraC-221" vertex="1">
          <mxGeometry width="20" height="17" as="geometry">
            <mxRectangle width="20" height="17" as="alternateBounds" />
          </mxGeometry>
        </mxCell>
        <mxCell id="98H9lZZ7wIg3jAL6WraC-223" value="5" style="shape=partialRectangle;html=1;whiteSpace=wrap;connectable=0;strokeColor=#b46504;overflow=hidden;fillColor=#fad7ac;top=0;left=0;bottom=0;right=0;pointerEvents=1;sketch=1;curveFitting=1;jiggle=2;" parent="98H9lZZ7wIg3jAL6WraC-221" vertex="1">
          <mxGeometry x="20" width="21" height="17" as="geometry">
            <mxRectangle width="21" height="17" as="alternateBounds" />
          </mxGeometry>
        </mxCell>
        <mxCell id="98H9lZZ7wIg3jAL6WraC-224" value="&lt;span style=&quot;color: rgb(0, 0, 0);&quot;&gt;8&lt;/span&gt;" style="shape=partialRectangle;html=1;whiteSpace=wrap;connectable=0;strokeColor=#B20000;overflow=hidden;fillColor=#e51400;top=0;left=0;bottom=0;right=0;pointerEvents=1;sketch=1;curveFitting=1;jiggle=2;fontColor=#ffffff;" parent="98H9lZZ7wIg3jAL6WraC-221" vertex="1">
          <mxGeometry x="41" width="20" height="17" as="geometry">
            <mxRectangle width="20" height="17" as="alternateBounds" />
          </mxGeometry>
        </mxCell>
        <mxCell id="98H9lZZ7wIg3jAL6WraC-225" value="" style="shape=partialRectangle;html=1;whiteSpace=wrap;connectable=0;strokeColor=inherit;overflow=hidden;fillColor=none;top=0;left=0;bottom=0;right=0;pointerEvents=1;" parent="98H9lZZ7wIg3jAL6WraC-221" vertex="1">
          <mxGeometry x="61" width="21" height="17" as="geometry">
            <mxRectangle width="21" height="17" as="alternateBounds" />
          </mxGeometry>
        </mxCell>
        <mxCell id="98H9lZZ7wIg3jAL6WraC-226" value="" style="shape=partialRectangle;html=1;whiteSpace=wrap;connectable=0;strokeColor=inherit;overflow=hidden;fillColor=none;top=0;left=0;bottom=0;right=0;pointerEvents=1;" parent="98H9lZZ7wIg3jAL6WraC-221" vertex="1">
          <mxGeometry x="82" width="20" height="17" as="geometry">
            <mxRectangle width="20" height="17" as="alternateBounds" />
          </mxGeometry>
        </mxCell>
        <mxCell id="98H9lZZ7wIg3jAL6WraC-227" value="" style="shape=partialRectangle;html=1;whiteSpace=wrap;connectable=0;strokeColor=inherit;overflow=hidden;fillColor=none;top=0;left=0;bottom=0;right=0;pointerEvents=1;" parent="98H9lZZ7wIg3jAL6WraC-221" vertex="1">
          <mxGeometry x="102" width="21" height="17" as="geometry">
            <mxRectangle width="21" height="17" as="alternateBounds" />
          </mxGeometry>
        </mxCell>
        <mxCell id="98H9lZZ7wIg3jAL6WraC-228" value="" style="shape=partialRectangle;html=1;whiteSpace=wrap;connectable=0;strokeColor=inherit;overflow=hidden;fillColor=none;top=0;left=0;bottom=0;right=0;pointerEvents=1;" parent="98H9lZZ7wIg3jAL6WraC-221" vertex="1">
          <mxGeometry x="123" width="20" height="17" as="geometry">
            <mxRectangle width="20" height="17" as="alternateBounds" />
          </mxGeometry>
        </mxCell>
        <mxCell id="98H9lZZ7wIg3jAL6WraC-229" value="" style="shape=partialRectangle;html=1;whiteSpace=wrap;connectable=0;strokeColor=inherit;overflow=hidden;fillColor=none;top=0;left=0;bottom=0;right=0;pointerEvents=1;" parent="98H9lZZ7wIg3jAL6WraC-221" vertex="1">
          <mxGeometry x="143" width="21" height="17" as="geometry">
            <mxRectangle width="21" height="17" as="alternateBounds" />
          </mxGeometry>
        </mxCell>
        <mxCell id="98H9lZZ7wIg3jAL6WraC-230" value="" style="shape=partialRectangle;html=1;whiteSpace=wrap;connectable=0;strokeColor=inherit;overflow=hidden;fillColor=none;top=0;left=0;bottom=0;right=0;pointerEvents=1;" parent="98H9lZZ7wIg3jAL6WraC-221" vertex="1">
          <mxGeometry x="164" width="20" height="17" as="geometry">
            <mxRectangle width="20" height="17" as="alternateBounds" />
          </mxGeometry>
        </mxCell>
        <mxCell id="98H9lZZ7wIg3jAL6WraC-231" value="" style="shape=tableRow;horizontal=0;startSize=0;swimlaneHead=0;swimlaneBody=0;strokeColor=inherit;top=0;left=0;bottom=0;right=0;collapsible=0;dropTarget=0;fillColor=none;points=[[0,0.5],[1,0.5]];portConstraint=eastwest;" parent="98H9lZZ7wIg3jAL6WraC-200" vertex="1">
          <mxGeometry y="53" width="184" height="18" as="geometry" />
        </mxCell>
        <mxCell id="98H9lZZ7wIg3jAL6WraC-232" value="" style="shape=partialRectangle;html=1;whiteSpace=wrap;connectable=0;strokeColor=inherit;overflow=hidden;fillColor=none;top=0;left=0;bottom=0;right=0;pointerEvents=1;" parent="98H9lZZ7wIg3jAL6WraC-231" vertex="1">
          <mxGeometry width="20" height="18" as="geometry">
            <mxRectangle width="20" height="18" as="alternateBounds" />
          </mxGeometry>
        </mxCell>
        <mxCell id="98H9lZZ7wIg3jAL6WraC-233" value="" style="shape=partialRectangle;html=1;whiteSpace=wrap;connectable=0;strokeColor=inherit;overflow=hidden;fillColor=none;top=0;left=0;bottom=0;right=0;pointerEvents=1;" parent="98H9lZZ7wIg3jAL6WraC-231" vertex="1">
          <mxGeometry x="20" width="21" height="18" as="geometry">
            <mxRectangle width="21" height="18" as="alternateBounds" />
          </mxGeometry>
        </mxCell>
        <mxCell id="98H9lZZ7wIg3jAL6WraC-234" value="" style="shape=partialRectangle;html=1;whiteSpace=wrap;connectable=0;strokeColor=inherit;overflow=hidden;fillColor=none;top=0;left=0;bottom=0;right=0;pointerEvents=1;" parent="98H9lZZ7wIg3jAL6WraC-231" vertex="1">
          <mxGeometry x="41" width="20" height="18" as="geometry">
            <mxRectangle width="20" height="18" as="alternateBounds" />
          </mxGeometry>
        </mxCell>
        <mxCell id="98H9lZZ7wIg3jAL6WraC-235" value="" style="shape=partialRectangle;html=1;whiteSpace=wrap;connectable=0;strokeColor=inherit;overflow=hidden;fillColor=none;top=0;left=0;bottom=0;right=0;pointerEvents=1;" parent="98H9lZZ7wIg3jAL6WraC-231" vertex="1">
          <mxGeometry x="61" width="21" height="18" as="geometry">
            <mxRectangle width="21" height="18" as="alternateBounds" />
          </mxGeometry>
        </mxCell>
        <mxCell id="98H9lZZ7wIg3jAL6WraC-236" value="" style="shape=partialRectangle;html=1;whiteSpace=wrap;connectable=0;strokeColor=inherit;overflow=hidden;fillColor=none;top=0;left=0;bottom=0;right=0;pointerEvents=1;" parent="98H9lZZ7wIg3jAL6WraC-231" vertex="1">
          <mxGeometry x="82" width="20" height="18" as="geometry">
            <mxRectangle width="20" height="18" as="alternateBounds" />
          </mxGeometry>
        </mxCell>
        <mxCell id="98H9lZZ7wIg3jAL6WraC-237" value="" style="shape=partialRectangle;html=1;whiteSpace=wrap;connectable=0;strokeColor=inherit;overflow=hidden;fillColor=none;top=0;left=0;bottom=0;right=0;pointerEvents=1;" parent="98H9lZZ7wIg3jAL6WraC-231" vertex="1">
          <mxGeometry x="102" width="21" height="18" as="geometry">
            <mxRectangle width="21" height="18" as="alternateBounds" />
          </mxGeometry>
        </mxCell>
        <mxCell id="98H9lZZ7wIg3jAL6WraC-238" value="" style="shape=partialRectangle;html=1;whiteSpace=wrap;connectable=0;strokeColor=inherit;overflow=hidden;fillColor=none;top=0;left=0;bottom=0;right=0;pointerEvents=1;" parent="98H9lZZ7wIg3jAL6WraC-231" vertex="1">
          <mxGeometry x="123" width="20" height="18" as="geometry">
            <mxRectangle width="20" height="18" as="alternateBounds" />
          </mxGeometry>
        </mxCell>
        <mxCell id="98H9lZZ7wIg3jAL6WraC-239" value="" style="shape=partialRectangle;html=1;whiteSpace=wrap;connectable=0;strokeColor=inherit;overflow=hidden;fillColor=none;top=0;left=0;bottom=0;right=0;pointerEvents=1;" parent="98H9lZZ7wIg3jAL6WraC-231" vertex="1">
          <mxGeometry x="143" width="21" height="18" as="geometry">
            <mxRectangle width="21" height="18" as="alternateBounds" />
          </mxGeometry>
        </mxCell>
        <mxCell id="98H9lZZ7wIg3jAL6WraC-240" value="" style="shape=partialRectangle;html=1;whiteSpace=wrap;connectable=0;strokeColor=inherit;overflow=hidden;fillColor=none;top=0;left=0;bottom=0;right=0;pointerEvents=1;" parent="98H9lZZ7wIg3jAL6WraC-231" vertex="1">
          <mxGeometry x="164" width="20" height="18" as="geometry">
            <mxRectangle width="20" height="18" as="alternateBounds" />
          </mxGeometry>
        </mxCell>
        <mxCell id="98H9lZZ7wIg3jAL6WraC-241" value="" style="shape=tableRow;horizontal=0;startSize=0;swimlaneHead=0;swimlaneBody=0;strokeColor=inherit;top=0;left=0;bottom=0;right=0;collapsible=0;dropTarget=0;fillColor=none;points=[[0,0.5],[1,0.5]];portConstraint=eastwest;" parent="98H9lZZ7wIg3jAL6WraC-200" vertex="1">
          <mxGeometry y="71" width="184" height="18" as="geometry" />
        </mxCell>
        <mxCell id="98H9lZZ7wIg3jAL6WraC-242" value="" style="shape=partialRectangle;html=1;whiteSpace=wrap;connectable=0;strokeColor=inherit;overflow=hidden;fillColor=none;top=0;left=0;bottom=0;right=0;pointerEvents=1;" parent="98H9lZZ7wIg3jAL6WraC-241" vertex="1">
          <mxGeometry width="20" height="18" as="geometry">
            <mxRectangle width="20" height="18" as="alternateBounds" />
          </mxGeometry>
        </mxCell>
        <mxCell id="98H9lZZ7wIg3jAL6WraC-243" value="" style="shape=partialRectangle;html=1;whiteSpace=wrap;connectable=0;strokeColor=inherit;overflow=hidden;fillColor=none;top=0;left=0;bottom=0;right=0;pointerEvents=1;" parent="98H9lZZ7wIg3jAL6WraC-241" vertex="1">
          <mxGeometry x="20" width="21" height="18" as="geometry">
            <mxRectangle width="21" height="18" as="alternateBounds" />
          </mxGeometry>
        </mxCell>
        <mxCell id="98H9lZZ7wIg3jAL6WraC-244" value="" style="shape=partialRectangle;html=1;whiteSpace=wrap;connectable=0;strokeColor=inherit;overflow=hidden;fillColor=none;top=0;left=0;bottom=0;right=0;pointerEvents=1;" parent="98H9lZZ7wIg3jAL6WraC-241" vertex="1">
          <mxGeometry x="41" width="20" height="18" as="geometry">
            <mxRectangle width="20" height="18" as="alternateBounds" />
          </mxGeometry>
        </mxCell>
        <mxCell id="98H9lZZ7wIg3jAL6WraC-245" value="" style="shape=partialRectangle;html=1;whiteSpace=wrap;connectable=0;strokeColor=inherit;overflow=hidden;fillColor=none;top=0;left=0;bottom=0;right=0;pointerEvents=1;" parent="98H9lZZ7wIg3jAL6WraC-241" vertex="1">
          <mxGeometry x="61" width="21" height="18" as="geometry">
            <mxRectangle width="21" height="18" as="alternateBounds" />
          </mxGeometry>
        </mxCell>
        <mxCell id="98H9lZZ7wIg3jAL6WraC-246" value="" style="shape=partialRectangle;html=1;whiteSpace=wrap;connectable=0;strokeColor=inherit;overflow=hidden;fillColor=none;top=0;left=0;bottom=0;right=0;pointerEvents=1;" parent="98H9lZZ7wIg3jAL6WraC-241" vertex="1">
          <mxGeometry x="82" width="20" height="18" as="geometry">
            <mxRectangle width="20" height="18" as="alternateBounds" />
          </mxGeometry>
        </mxCell>
        <mxCell id="98H9lZZ7wIg3jAL6WraC-247" value="" style="shape=partialRectangle;html=1;whiteSpace=wrap;connectable=0;strokeColor=inherit;overflow=hidden;fillColor=none;top=0;left=0;bottom=0;right=0;pointerEvents=1;" parent="98H9lZZ7wIg3jAL6WraC-241" vertex="1">
          <mxGeometry x="102" width="21" height="18" as="geometry">
            <mxRectangle width="21" height="18" as="alternateBounds" />
          </mxGeometry>
        </mxCell>
        <mxCell id="98H9lZZ7wIg3jAL6WraC-248" value="" style="shape=partialRectangle;html=1;whiteSpace=wrap;connectable=0;strokeColor=inherit;overflow=hidden;fillColor=none;top=0;left=0;bottom=0;right=0;pointerEvents=1;" parent="98H9lZZ7wIg3jAL6WraC-241" vertex="1">
          <mxGeometry x="123" width="20" height="18" as="geometry">
            <mxRectangle width="20" height="18" as="alternateBounds" />
          </mxGeometry>
        </mxCell>
        <mxCell id="98H9lZZ7wIg3jAL6WraC-249" value="" style="shape=partialRectangle;html=1;whiteSpace=wrap;connectable=0;strokeColor=inherit;overflow=hidden;fillColor=none;top=0;left=0;bottom=0;right=0;pointerEvents=1;" parent="98H9lZZ7wIg3jAL6WraC-241" vertex="1">
          <mxGeometry x="143" width="21" height="18" as="geometry">
            <mxRectangle width="21" height="18" as="alternateBounds" />
          </mxGeometry>
        </mxCell>
        <mxCell id="98H9lZZ7wIg3jAL6WraC-250" value="" style="shape=partialRectangle;html=1;whiteSpace=wrap;connectable=0;strokeColor=inherit;overflow=hidden;fillColor=none;top=0;left=0;bottom=0;right=0;pointerEvents=1;" parent="98H9lZZ7wIg3jAL6WraC-241" vertex="1">
          <mxGeometry x="164" width="20" height="18" as="geometry">
            <mxRectangle width="20" height="18" as="alternateBounds" />
          </mxGeometry>
        </mxCell>
        <mxCell id="98H9lZZ7wIg3jAL6WraC-251" value="" style="shape=tableRow;horizontal=0;startSize=0;swimlaneHead=0;swimlaneBody=0;strokeColor=inherit;top=0;left=0;bottom=0;right=0;collapsible=0;dropTarget=0;fillColor=none;points=[[0,0.5],[1,0.5]];portConstraint=eastwest;" parent="98H9lZZ7wIg3jAL6WraC-200" vertex="1">
          <mxGeometry y="89" width="184" height="18" as="geometry" />
        </mxCell>
        <mxCell id="98H9lZZ7wIg3jAL6WraC-252" value="" style="shape=partialRectangle;html=1;whiteSpace=wrap;connectable=0;strokeColor=inherit;overflow=hidden;fillColor=none;top=0;left=0;bottom=0;right=0;pointerEvents=1;" parent="98H9lZZ7wIg3jAL6WraC-251" vertex="1">
          <mxGeometry width="20" height="18" as="geometry">
            <mxRectangle width="20" height="18" as="alternateBounds" />
          </mxGeometry>
        </mxCell>
        <mxCell id="98H9lZZ7wIg3jAL6WraC-253" value="" style="shape=partialRectangle;html=1;whiteSpace=wrap;connectable=0;strokeColor=inherit;overflow=hidden;fillColor=none;top=0;left=0;bottom=0;right=0;pointerEvents=1;" parent="98H9lZZ7wIg3jAL6WraC-251" vertex="1">
          <mxGeometry x="20" width="21" height="18" as="geometry">
            <mxRectangle width="21" height="18" as="alternateBounds" />
          </mxGeometry>
        </mxCell>
        <mxCell id="98H9lZZ7wIg3jAL6WraC-254" value="" style="shape=partialRectangle;html=1;whiteSpace=wrap;connectable=0;strokeColor=inherit;overflow=hidden;fillColor=none;top=0;left=0;bottom=0;right=0;pointerEvents=1;" parent="98H9lZZ7wIg3jAL6WraC-251" vertex="1">
          <mxGeometry x="41" width="20" height="18" as="geometry">
            <mxRectangle width="20" height="18" as="alternateBounds" />
          </mxGeometry>
        </mxCell>
        <mxCell id="98H9lZZ7wIg3jAL6WraC-255" value="" style="shape=partialRectangle;html=1;whiteSpace=wrap;connectable=0;strokeColor=inherit;overflow=hidden;fillColor=none;top=0;left=0;bottom=0;right=0;pointerEvents=1;" parent="98H9lZZ7wIg3jAL6WraC-251" vertex="1">
          <mxGeometry x="61" width="21" height="18" as="geometry">
            <mxRectangle width="21" height="18" as="alternateBounds" />
          </mxGeometry>
        </mxCell>
        <mxCell id="98H9lZZ7wIg3jAL6WraC-256" value="" style="shape=partialRectangle;html=1;whiteSpace=wrap;connectable=0;strokeColor=inherit;overflow=hidden;fillColor=none;top=0;left=0;bottom=0;right=0;pointerEvents=1;" parent="98H9lZZ7wIg3jAL6WraC-251" vertex="1">
          <mxGeometry x="82" width="20" height="18" as="geometry">
            <mxRectangle width="20" height="18" as="alternateBounds" />
          </mxGeometry>
        </mxCell>
        <mxCell id="98H9lZZ7wIg3jAL6WraC-257" value="" style="shape=partialRectangle;html=1;whiteSpace=wrap;connectable=0;strokeColor=inherit;overflow=hidden;fillColor=none;top=0;left=0;bottom=0;right=0;pointerEvents=1;" parent="98H9lZZ7wIg3jAL6WraC-251" vertex="1">
          <mxGeometry x="102" width="21" height="18" as="geometry">
            <mxRectangle width="21" height="18" as="alternateBounds" />
          </mxGeometry>
        </mxCell>
        <mxCell id="98H9lZZ7wIg3jAL6WraC-258" value="" style="shape=partialRectangle;html=1;whiteSpace=wrap;connectable=0;strokeColor=inherit;overflow=hidden;fillColor=none;top=0;left=0;bottom=0;right=0;pointerEvents=1;" parent="98H9lZZ7wIg3jAL6WraC-251" vertex="1">
          <mxGeometry x="123" width="20" height="18" as="geometry">
            <mxRectangle width="20" height="18" as="alternateBounds" />
          </mxGeometry>
        </mxCell>
        <mxCell id="98H9lZZ7wIg3jAL6WraC-259" value="" style="shape=partialRectangle;html=1;whiteSpace=wrap;connectable=0;strokeColor=inherit;overflow=hidden;fillColor=none;top=0;left=0;bottom=0;right=0;pointerEvents=1;" parent="98H9lZZ7wIg3jAL6WraC-251" vertex="1">
          <mxGeometry x="143" width="21" height="18" as="geometry">
            <mxRectangle width="21" height="18" as="alternateBounds" />
          </mxGeometry>
        </mxCell>
        <mxCell id="98H9lZZ7wIg3jAL6WraC-260" value="" style="shape=partialRectangle;html=1;whiteSpace=wrap;connectable=0;strokeColor=inherit;overflow=hidden;fillColor=none;top=0;left=0;bottom=0;right=0;pointerEvents=1;" parent="98H9lZZ7wIg3jAL6WraC-251" vertex="1">
          <mxGeometry x="164" width="20" height="18" as="geometry">
            <mxRectangle width="20" height="18" as="alternateBounds" />
          </mxGeometry>
        </mxCell>
        <mxCell id="98H9lZZ7wIg3jAL6WraC-261" value="" style="shape=tableRow;horizontal=0;startSize=0;swimlaneHead=0;swimlaneBody=0;strokeColor=inherit;top=0;left=0;bottom=0;right=0;collapsible=0;dropTarget=0;fillColor=none;points=[[0,0.5],[1,0.5]];portConstraint=eastwest;" parent="98H9lZZ7wIg3jAL6WraC-200" vertex="1">
          <mxGeometry y="107" width="184" height="17" as="geometry" />
        </mxCell>
        <mxCell id="98H9lZZ7wIg3jAL6WraC-262" value="" style="shape=partialRectangle;html=1;whiteSpace=wrap;connectable=0;strokeColor=inherit;overflow=hidden;fillColor=none;top=0;left=0;bottom=0;right=0;pointerEvents=1;" parent="98H9lZZ7wIg3jAL6WraC-261" vertex="1">
          <mxGeometry width="20" height="17" as="geometry">
            <mxRectangle width="20" height="17" as="alternateBounds" />
          </mxGeometry>
        </mxCell>
        <mxCell id="98H9lZZ7wIg3jAL6WraC-263" value="" style="shape=partialRectangle;html=1;whiteSpace=wrap;connectable=0;strokeColor=inherit;overflow=hidden;fillColor=none;top=0;left=0;bottom=0;right=0;pointerEvents=1;" parent="98H9lZZ7wIg3jAL6WraC-261" vertex="1">
          <mxGeometry x="20" width="21" height="17" as="geometry">
            <mxRectangle width="21" height="17" as="alternateBounds" />
          </mxGeometry>
        </mxCell>
        <mxCell id="98H9lZZ7wIg3jAL6WraC-264" value="" style="shape=partialRectangle;html=1;whiteSpace=wrap;connectable=0;strokeColor=inherit;overflow=hidden;fillColor=none;top=0;left=0;bottom=0;right=0;pointerEvents=1;" parent="98H9lZZ7wIg3jAL6WraC-261" vertex="1">
          <mxGeometry x="41" width="20" height="17" as="geometry">
            <mxRectangle width="20" height="17" as="alternateBounds" />
          </mxGeometry>
        </mxCell>
        <mxCell id="98H9lZZ7wIg3jAL6WraC-265" value="" style="shape=partialRectangle;html=1;whiteSpace=wrap;connectable=0;strokeColor=inherit;overflow=hidden;fillColor=none;top=0;left=0;bottom=0;right=0;pointerEvents=1;" parent="98H9lZZ7wIg3jAL6WraC-261" vertex="1">
          <mxGeometry x="61" width="21" height="17" as="geometry">
            <mxRectangle width="21" height="17" as="alternateBounds" />
          </mxGeometry>
        </mxCell>
        <mxCell id="98H9lZZ7wIg3jAL6WraC-266" value="" style="shape=partialRectangle;html=1;whiteSpace=wrap;connectable=0;strokeColor=inherit;overflow=hidden;fillColor=none;top=0;left=0;bottom=0;right=0;pointerEvents=1;" parent="98H9lZZ7wIg3jAL6WraC-261" vertex="1">
          <mxGeometry x="82" width="20" height="17" as="geometry">
            <mxRectangle width="20" height="17" as="alternateBounds" />
          </mxGeometry>
        </mxCell>
        <mxCell id="98H9lZZ7wIg3jAL6WraC-267" value="" style="shape=partialRectangle;html=1;whiteSpace=wrap;connectable=0;strokeColor=inherit;overflow=hidden;fillColor=none;top=0;left=0;bottom=0;right=0;pointerEvents=1;" parent="98H9lZZ7wIg3jAL6WraC-261" vertex="1">
          <mxGeometry x="102" width="21" height="17" as="geometry">
            <mxRectangle width="21" height="17" as="alternateBounds" />
          </mxGeometry>
        </mxCell>
        <mxCell id="98H9lZZ7wIg3jAL6WraC-268" value="" style="shape=partialRectangle;html=1;whiteSpace=wrap;connectable=0;strokeColor=inherit;overflow=hidden;fillColor=none;top=0;left=0;bottom=0;right=0;pointerEvents=1;" parent="98H9lZZ7wIg3jAL6WraC-261" vertex="1">
          <mxGeometry x="123" width="20" height="17" as="geometry">
            <mxRectangle width="20" height="17" as="alternateBounds" />
          </mxGeometry>
        </mxCell>
        <mxCell id="98H9lZZ7wIg3jAL6WraC-269" value="" style="shape=partialRectangle;html=1;whiteSpace=wrap;connectable=0;strokeColor=inherit;overflow=hidden;fillColor=none;top=0;left=0;bottom=0;right=0;pointerEvents=1;" parent="98H9lZZ7wIg3jAL6WraC-261" vertex="1">
          <mxGeometry x="143" width="21" height="17" as="geometry">
            <mxRectangle width="21" height="17" as="alternateBounds" />
          </mxGeometry>
        </mxCell>
        <mxCell id="98H9lZZ7wIg3jAL6WraC-270" value="" style="shape=partialRectangle;html=1;whiteSpace=wrap;connectable=0;strokeColor=inherit;overflow=hidden;fillColor=none;top=0;left=0;bottom=0;right=0;pointerEvents=1;" parent="98H9lZZ7wIg3jAL6WraC-261" vertex="1">
          <mxGeometry x="164" width="20" height="17" as="geometry">
            <mxRectangle width="20" height="17" as="alternateBounds" />
          </mxGeometry>
        </mxCell>
        <mxCell id="98H9lZZ7wIg3jAL6WraC-271" value="" style="shape=tableRow;horizontal=0;startSize=0;swimlaneHead=0;swimlaneBody=0;strokeColor=inherit;top=0;left=0;bottom=0;right=0;collapsible=0;dropTarget=0;fillColor=none;points=[[0,0.5],[1,0.5]];portConstraint=eastwest;" parent="98H9lZZ7wIg3jAL6WraC-200" vertex="1">
          <mxGeometry y="124" width="184" height="18" as="geometry" />
        </mxCell>
        <mxCell id="98H9lZZ7wIg3jAL6WraC-272" value="" style="shape=partialRectangle;html=1;whiteSpace=wrap;connectable=0;strokeColor=inherit;overflow=hidden;fillColor=none;top=0;left=0;bottom=0;right=0;pointerEvents=1;" parent="98H9lZZ7wIg3jAL6WraC-271" vertex="1">
          <mxGeometry width="20" height="18" as="geometry">
            <mxRectangle width="20" height="18" as="alternateBounds" />
          </mxGeometry>
        </mxCell>
        <mxCell id="98H9lZZ7wIg3jAL6WraC-273" value="" style="shape=partialRectangle;html=1;whiteSpace=wrap;connectable=0;strokeColor=inherit;overflow=hidden;fillColor=none;top=0;left=0;bottom=0;right=0;pointerEvents=1;" parent="98H9lZZ7wIg3jAL6WraC-271" vertex="1">
          <mxGeometry x="20" width="21" height="18" as="geometry">
            <mxRectangle width="21" height="18" as="alternateBounds" />
          </mxGeometry>
        </mxCell>
        <mxCell id="98H9lZZ7wIg3jAL6WraC-274" value="" style="shape=partialRectangle;html=1;whiteSpace=wrap;connectable=0;strokeColor=inherit;overflow=hidden;fillColor=none;top=0;left=0;bottom=0;right=0;pointerEvents=1;" parent="98H9lZZ7wIg3jAL6WraC-271" vertex="1">
          <mxGeometry x="41" width="20" height="18" as="geometry">
            <mxRectangle width="20" height="18" as="alternateBounds" />
          </mxGeometry>
        </mxCell>
        <mxCell id="98H9lZZ7wIg3jAL6WraC-275" value="" style="shape=partialRectangle;html=1;whiteSpace=wrap;connectable=0;strokeColor=inherit;overflow=hidden;fillColor=none;top=0;left=0;bottom=0;right=0;pointerEvents=1;" parent="98H9lZZ7wIg3jAL6WraC-271" vertex="1">
          <mxGeometry x="61" width="21" height="18" as="geometry">
            <mxRectangle width="21" height="18" as="alternateBounds" />
          </mxGeometry>
        </mxCell>
        <mxCell id="98H9lZZ7wIg3jAL6WraC-276" value="" style="shape=partialRectangle;html=1;whiteSpace=wrap;connectable=0;strokeColor=inherit;overflow=hidden;fillColor=none;top=0;left=0;bottom=0;right=0;pointerEvents=1;" parent="98H9lZZ7wIg3jAL6WraC-271" vertex="1">
          <mxGeometry x="82" width="20" height="18" as="geometry">
            <mxRectangle width="20" height="18" as="alternateBounds" />
          </mxGeometry>
        </mxCell>
        <mxCell id="98H9lZZ7wIg3jAL6WraC-277" value="" style="shape=partialRectangle;html=1;whiteSpace=wrap;connectable=0;strokeColor=inherit;overflow=hidden;fillColor=none;top=0;left=0;bottom=0;right=0;pointerEvents=1;" parent="98H9lZZ7wIg3jAL6WraC-271" vertex="1">
          <mxGeometry x="102" width="21" height="18" as="geometry">
            <mxRectangle width="21" height="18" as="alternateBounds" />
          </mxGeometry>
        </mxCell>
        <mxCell id="98H9lZZ7wIg3jAL6WraC-278" value="" style="shape=partialRectangle;html=1;whiteSpace=wrap;connectable=0;strokeColor=inherit;overflow=hidden;fillColor=none;top=0;left=0;bottom=0;right=0;pointerEvents=1;" parent="98H9lZZ7wIg3jAL6WraC-271" vertex="1">
          <mxGeometry x="123" width="20" height="18" as="geometry">
            <mxRectangle width="20" height="18" as="alternateBounds" />
          </mxGeometry>
        </mxCell>
        <mxCell id="98H9lZZ7wIg3jAL6WraC-279" value="" style="shape=partialRectangle;html=1;whiteSpace=wrap;connectable=0;strokeColor=inherit;overflow=hidden;fillColor=none;top=0;left=0;bottom=0;right=0;pointerEvents=1;" parent="98H9lZZ7wIg3jAL6WraC-271" vertex="1">
          <mxGeometry x="143" width="21" height="18" as="geometry">
            <mxRectangle width="21" height="18" as="alternateBounds" />
          </mxGeometry>
        </mxCell>
        <mxCell id="98H9lZZ7wIg3jAL6WraC-280" value="" style="shape=partialRectangle;html=1;whiteSpace=wrap;connectable=0;strokeColor=inherit;overflow=hidden;fillColor=none;top=0;left=0;bottom=0;right=0;pointerEvents=1;" parent="98H9lZZ7wIg3jAL6WraC-271" vertex="1">
          <mxGeometry x="164" width="20" height="18" as="geometry">
            <mxRectangle width="20" height="18" as="alternateBounds" />
          </mxGeometry>
        </mxCell>
        <mxCell id="98H9lZZ7wIg3jAL6WraC-281" value="" style="shape=tableRow;horizontal=0;startSize=0;swimlaneHead=0;swimlaneBody=0;strokeColor=inherit;top=0;left=0;bottom=0;right=0;collapsible=0;dropTarget=0;fillColor=none;points=[[0,0.5],[1,0.5]];portConstraint=eastwest;" parent="98H9lZZ7wIg3jAL6WraC-200" vertex="1">
          <mxGeometry y="142" width="184" height="18" as="geometry" />
        </mxCell>
        <mxCell id="98H9lZZ7wIg3jAL6WraC-282" value="" style="shape=partialRectangle;html=1;whiteSpace=wrap;connectable=0;strokeColor=inherit;overflow=hidden;fillColor=none;top=0;left=0;bottom=0;right=0;pointerEvents=1;" parent="98H9lZZ7wIg3jAL6WraC-281" vertex="1">
          <mxGeometry width="20" height="18" as="geometry">
            <mxRectangle width="20" height="18" as="alternateBounds" />
          </mxGeometry>
        </mxCell>
        <mxCell id="98H9lZZ7wIg3jAL6WraC-283" value="" style="shape=partialRectangle;html=1;whiteSpace=wrap;connectable=0;strokeColor=inherit;overflow=hidden;fillColor=none;top=0;left=0;bottom=0;right=0;pointerEvents=1;" parent="98H9lZZ7wIg3jAL6WraC-281" vertex="1">
          <mxGeometry x="20" width="21" height="18" as="geometry">
            <mxRectangle width="21" height="18" as="alternateBounds" />
          </mxGeometry>
        </mxCell>
        <mxCell id="98H9lZZ7wIg3jAL6WraC-284" value="" style="shape=partialRectangle;html=1;whiteSpace=wrap;connectable=0;strokeColor=inherit;overflow=hidden;fillColor=none;top=0;left=0;bottom=0;right=0;pointerEvents=1;" parent="98H9lZZ7wIg3jAL6WraC-281" vertex="1">
          <mxGeometry x="41" width="20" height="18" as="geometry">
            <mxRectangle width="20" height="18" as="alternateBounds" />
          </mxGeometry>
        </mxCell>
        <mxCell id="98H9lZZ7wIg3jAL6WraC-285" value="" style="shape=partialRectangle;html=1;whiteSpace=wrap;connectable=0;strokeColor=inherit;overflow=hidden;fillColor=none;top=0;left=0;bottom=0;right=0;pointerEvents=1;" parent="98H9lZZ7wIg3jAL6WraC-281" vertex="1">
          <mxGeometry x="61" width="21" height="18" as="geometry">
            <mxRectangle width="21" height="18" as="alternateBounds" />
          </mxGeometry>
        </mxCell>
        <mxCell id="98H9lZZ7wIg3jAL6WraC-286" value="" style="shape=partialRectangle;html=1;whiteSpace=wrap;connectable=0;strokeColor=inherit;overflow=hidden;fillColor=none;top=0;left=0;bottom=0;right=0;pointerEvents=1;" parent="98H9lZZ7wIg3jAL6WraC-281" vertex="1">
          <mxGeometry x="82" width="20" height="18" as="geometry">
            <mxRectangle width="20" height="18" as="alternateBounds" />
          </mxGeometry>
        </mxCell>
        <mxCell id="98H9lZZ7wIg3jAL6WraC-287" value="" style="shape=partialRectangle;html=1;whiteSpace=wrap;connectable=0;strokeColor=inherit;overflow=hidden;fillColor=none;top=0;left=0;bottom=0;right=0;pointerEvents=1;" parent="98H9lZZ7wIg3jAL6WraC-281" vertex="1">
          <mxGeometry x="102" width="21" height="18" as="geometry">
            <mxRectangle width="21" height="18" as="alternateBounds" />
          </mxGeometry>
        </mxCell>
        <mxCell id="98H9lZZ7wIg3jAL6WraC-288" value="" style="shape=partialRectangle;html=1;whiteSpace=wrap;connectable=0;strokeColor=inherit;overflow=hidden;fillColor=none;top=0;left=0;bottom=0;right=0;pointerEvents=1;" parent="98H9lZZ7wIg3jAL6WraC-281" vertex="1">
          <mxGeometry x="123" width="20" height="18" as="geometry">
            <mxRectangle width="20" height="18" as="alternateBounds" />
          </mxGeometry>
        </mxCell>
        <mxCell id="98H9lZZ7wIg3jAL6WraC-289" value="" style="shape=partialRectangle;html=1;whiteSpace=wrap;connectable=0;strokeColor=inherit;overflow=hidden;fillColor=none;top=0;left=0;bottom=0;right=0;pointerEvents=1;" parent="98H9lZZ7wIg3jAL6WraC-281" vertex="1">
          <mxGeometry x="143" width="21" height="18" as="geometry">
            <mxRectangle width="21" height="18" as="alternateBounds" />
          </mxGeometry>
        </mxCell>
        <mxCell id="98H9lZZ7wIg3jAL6WraC-290" value="" style="shape=partialRectangle;html=1;whiteSpace=wrap;connectable=0;strokeColor=inherit;overflow=hidden;fillColor=none;top=0;left=0;bottom=0;right=0;pointerEvents=1;" parent="98H9lZZ7wIg3jAL6WraC-281" vertex="1">
          <mxGeometry x="164" width="20" height="18" as="geometry">
            <mxRectangle width="20" height="18" as="alternateBounds" />
          </mxGeometry>
        </mxCell>
        <mxCell id="98H9lZZ7wIg3jAL6WraC-291" value="" style="swimlane;startSize=0;fillColor=#e51400;fontColor=#ffffff;strokeColor=#B20000;strokeWidth=2;" parent="1" vertex="1">
          <mxGeometry x="246" y="240" width="192" height="26" as="geometry" />
        </mxCell>
        <mxCell id="98H9lZZ7wIg3jAL6WraC-293" value="" style="swimlane;startSize=0;fillColor=#e51400;fontColor=#ffffff;strokeColor=#B20000;rotation=90;strokeWidth=2;" parent="1" vertex="1">
          <mxGeometry x="444.25" y="275.25" width="173.5" height="26" as="geometry" />
        </mxCell>
        <mxCell id="98H9lZZ7wIg3jAL6WraC-294" value="&lt;b&gt;&lt;span style=&quot;color: rgb(255, 0, 0);&quot;&gt;pid_m&lt;/span&gt;&lt;/b&gt;" style="text;html=1;align=center;verticalAlign=middle;whiteSpace=wrap;rounded=0;" parent="1" vertex="1">
          <mxGeometry x="666" y="246" width="40" height="20" as="geometry" />
        </mxCell>
        <mxCell id="98H9lZZ7wIg3jAL6WraC-295" value="&lt;b&gt;&lt;span style=&quot;color: rgb(255, 0, 0);&quot;&gt;pid_n&lt;/span&gt;&lt;/b&gt;" style="text;html=1;align=center;verticalAlign=middle;whiteSpace=wrap;rounded=0;" parent="1" vertex="1">
          <mxGeometry x="740" y="184" width="40" height="20" as="geometry" />
        </mxCell>
        <mxCell id="98H9lZZ7wIg3jAL6WraC-296" value="" style="rounded=0;whiteSpace=wrap;html=1;" parent="1" vertex="1">
          <mxGeometry x="180" y="166" width="20" height="22" as="geometry" />
        </mxCell>
        <mxCell id="aJFGZOLPX80Hbr7EHM37-1" value="" style="endArrow=none;html=1;rounded=0;exitX=-0.007;exitY=-0.046;exitDx=0;exitDy=0;exitPerimeter=0;entryX=0;entryY=1;entryDx=0;entryDy=0;" edge="1" parent="1" source="98H9lZZ7wIg3jAL6WraC-29" target="98H9lZZ7wIg3jAL6WraC-296">
          <mxGeometry width="50" height="50" relative="1" as="geometry">
            <mxPoint x="240" y="230" as="sourcePoint" />
            <mxPoint x="180" y="190" as="targetPoint" />
          </mxGeometry>
        </mxCell>
        <mxCell id="aJFGZOLPX80Hbr7EHM37-2" value="" style="endArrow=none;html=1;rounded=0;entryX=1;entryY=0;entryDx=0;entryDy=0;exitX=0.107;exitY=-0.019;exitDx=0;exitDy=0;exitPerimeter=0;" edge="1" parent="1" source="98H9lZZ7wIg3jAL6WraC-19" target="98H9lZZ7wIg3jAL6WraC-296">
          <mxGeometry width="50" height="50" relative="1" as="geometry">
            <mxPoint x="320" y="290" as="sourcePoint" />
            <mxPoint x="370" y="240" as="targetPoint" />
          </mxGeometry>
        </mxCell>
        <mxCell id="aJFGZOLPX80Hbr7EHM37-3" value="" style="shape=crossbar;whiteSpace=wrap;html=1;rounded=1;direction=south;" vertex="1" parent="1">
          <mxGeometry x="170" y="165" width="5" height="24" as="geometry" />
        </mxCell>
        <mxCell id="aJFGZOLPX80Hbr7EHM37-4" value="" style="shape=crossbar;whiteSpace=wrap;html=1;rounded=1;direction=west;" vertex="1" parent="1">
          <mxGeometry x="178" y="158" width="22.5" height="5" as="geometry" />
        </mxCell>
        <mxCell id="aJFGZOLPX80Hbr7EHM37-5" value="&lt;b&gt;&lt;font style=&quot;font-size: 8px; color: rgb(255, 181, 112);&quot;&gt;BLOCK_SIZE_M&lt;/font&gt;&lt;/b&gt;" style="text;html=1;align=center;verticalAlign=middle;whiteSpace=wrap;rounded=0;" vertex="1" parent="1">
          <mxGeometry x="110" y="162" width="60" height="30" as="geometry" />
        </mxCell>
        <mxCell id="aJFGZOLPX80Hbr7EHM37-6" value="&lt;b style=&quot;color: rgb(0, 0, 255);&quot;&gt;&lt;font style=&quot;font-size: 8px; color: rgb(255, 181, 112);&quot;&gt;BLOCK_SIZE_K&lt;/font&gt;&lt;/b&gt;" style="text;html=1;align=center;verticalAlign=middle;whiteSpace=wrap;rounded=0;" vertex="1" parent="1">
          <mxGeometry x="160" y="132" width="60" height="30" as="geometry" />
        </mxCell>
        <mxCell id="aJFGZOLPX80Hbr7EHM37-7" value="&lt;b&gt;Matrix A&lt;/b&gt;" style="text;html=1;align=center;verticalAlign=middle;whiteSpace=wrap;rounded=0;" vertex="1" parent="1">
          <mxGeometry x="295" y="120" width="60" height="30" as="geometry" />
        </mxCell>
        <mxCell id="aJFGZOLPX80Hbr7EHM37-8" value="" style="shape=partialRectangle;html=1;whiteSpace=wrap;connectable=0;strokeColor=#b46504;overflow=hidden;fillColor=#fad7ac;top=0;left=0;bottom=0;right=0;pointerEvents=1;fillStyle=dashed;swimlaneLine=1;sketch=1;curveFitting=1;jiggle=2;" vertex="1" parent="1">
          <mxGeometry x="480" y="208" width="20" height="18" as="geometry">
            <mxRectangle width="20" height="18" as="alternateBounds" />
          </mxGeometry>
        </mxCell>
        <mxCell id="aJFGZOLPX80Hbr7EHM37-9" value="" style="rounded=0;whiteSpace=wrap;html=1;" vertex="1" parent="1">
          <mxGeometry x="410" y="166" width="20" height="22" as="geometry" />
        </mxCell>
        <mxCell id="aJFGZOLPX80Hbr7EHM37-10" value="" style="endArrow=none;html=1;rounded=0;exitX=-0.007;exitY=-0.046;exitDx=0;exitDy=0;exitPerimeter=0;entryX=0;entryY=1;entryDx=0;entryDy=0;" edge="1" parent="1" target="aJFGZOLPX80Hbr7EHM37-9">
          <mxGeometry width="50" height="50" relative="1" as="geometry">
            <mxPoint x="479" y="225" as="sourcePoint" />
            <mxPoint x="410" y="190" as="targetPoint" />
          </mxGeometry>
        </mxCell>
        <mxCell id="aJFGZOLPX80Hbr7EHM37-11" value="" style="endArrow=none;html=1;rounded=0;entryX=1;entryY=0;entryDx=0;entryDy=0;exitX=0.107;exitY=-0.019;exitDx=0;exitDy=0;exitPerimeter=0;" edge="1" parent="1" target="aJFGZOLPX80Hbr7EHM37-9">
          <mxGeometry width="50" height="50" relative="1" as="geometry">
            <mxPoint x="500" y="208" as="sourcePoint" />
            <mxPoint x="600" y="240" as="targetPoint" />
          </mxGeometry>
        </mxCell>
        <mxCell id="aJFGZOLPX80Hbr7EHM37-12" value="" style="shape=crossbar;whiteSpace=wrap;html=1;rounded=1;direction=south;" vertex="1" parent="1">
          <mxGeometry x="400" y="165" width="5" height="24" as="geometry" />
        </mxCell>
        <mxCell id="aJFGZOLPX80Hbr7EHM37-13" value="" style="shape=crossbar;whiteSpace=wrap;html=1;rounded=1;direction=west;" vertex="1" parent="1">
          <mxGeometry x="408" y="158" width="22.5" height="5" as="geometry" />
        </mxCell>
        <mxCell id="aJFGZOLPX80Hbr7EHM37-14" value="&lt;b&gt;&lt;font style=&quot;font-size: 8px; color: rgb(255, 181, 112);&quot;&gt;BLOCK_SIZE_K&lt;/font&gt;&lt;/b&gt;" style="text;html=1;align=center;verticalAlign=middle;whiteSpace=wrap;rounded=0;" vertex="1" parent="1">
          <mxGeometry x="340" y="162" width="60" height="30" as="geometry" />
        </mxCell>
        <mxCell id="aJFGZOLPX80Hbr7EHM37-15" value="&lt;b&gt;&lt;font style=&quot;font-size: 8px; color: rgb(255, 181, 112);&quot;&gt;BLOCK_SIZE_N&lt;/font&gt;&lt;/b&gt;" style="text;html=1;align=center;verticalAlign=middle;whiteSpace=wrap;rounded=0;" vertex="1" parent="1">
          <mxGeometry x="390" y="132" width="60" height="30" as="geometry" />
        </mxCell>
        <mxCell id="aJFGZOLPX80Hbr7EHM37-16" value="&lt;b&gt;Matrix B&lt;br&gt;&lt;/b&gt;" style="text;html=1;align=center;verticalAlign=middle;whiteSpace=wrap;rounded=0;" vertex="1" parent="1">
          <mxGeometry x="550" y="120" width="60" height="30" as="geometry" />
        </mxCell>
        <mxCell id="aJFGZOLPX80Hbr7EHM37-17" value="" style="rounded=0;whiteSpace=wrap;html=1;fillColor=#e51400;fontColor=#ffffff;strokeColor=#B20000;sketch=1;curveFitting=1;jiggle=2;" vertex="1" parent="1">
          <mxGeometry x="245" y="463" width="20" height="20" as="geometry" />
        </mxCell>
        <mxCell id="aJFGZOLPX80Hbr7EHM37-18" value="是目标BLOCK, 计算目标BLOCK,需要被" style="text;html=1;align=center;verticalAlign=middle;whiteSpace=wrap;rounded=0;" vertex="1" parent="1">
          <mxGeometry x="258" y="460" width="237" height="30" as="geometry" />
        </mxCell>
        <mxCell id="aJFGZOLPX80Hbr7EHM37-19" value="&lt;b&gt;Matrix C&lt;br&gt;&lt;/b&gt;" style="text;html=1;align=center;verticalAlign=middle;whiteSpace=wrap;rounded=0;" vertex="1" parent="1">
          <mxGeometry x="772" y="120" width="60" height="30" as="geometry" />
        </mxCell>
        <mxCell id="aJFGZOLPX80Hbr7EHM37-20" value="" style="swimlane;startSize=0;fillColor=#0050ef;fontColor=#ffffff;strokeColor=#001DBC;strokeWidth=2;" vertex="1" parent="1">
          <mxGeometry x="706" y="205" width="194" height="63" as="geometry" />
        </mxCell>
        <mxCell id="aJFGZOLPX80Hbr7EHM37-21" value="&lt;b&gt;&lt;span style=&quot;color: light-dark(rgb(51, 51, 255), rgb(168, 168, 255));&quot;&gt;GROUP&lt;/span&gt;&lt;/b&gt;" style="text;html=1;align=center;verticalAlign=middle;whiteSpace=wrap;rounded=0;" vertex="1" parent="1">
          <mxGeometry x="900" y="226" width="60" height="30" as="geometry" />
        </mxCell>
        <mxCell id="aJFGZOLPX80Hbr7EHM37-22" value="" style="shape=crossbar;whiteSpace=wrap;html=1;rounded=1;direction=south;" vertex="1" parent="1">
          <mxGeometry x="240" y="208" width="5" height="52" as="geometry" />
        </mxCell>
        <mxCell id="aJFGZOLPX80Hbr7EHM37-24" value="&lt;b&gt;&lt;span style=&quot;color: rgb(51, 51, 255);&quot;&gt;&lt;span style=&quot;color: light-dark(rgb(51, 51, 255), rgb(168, 168, 255));&quot;&gt;GROUP&lt;/span&gt;_SIZE_M&lt;/span&gt;&lt;/b&gt;" style="text;html=1;align=center;verticalAlign=middle;whiteSpace=wrap;rounded=0;" vertex="1" parent="1">
          <mxGeometry x="159.25" y="221.5" width="60" height="30" as="geometry" />
        </mxCell>
        <mxCell id="aJFGZOLPX80Hbr7EHM37-25" value="" style="swimlane;startSize=0;fillColor=#e51400;fontColor=#ffffff;strokeColor=#B20000;rotation=90;strokeWidth=2;" vertex="1" parent="1">
          <mxGeometry x="495" y="463" width="14.75" height="26" as="geometry" />
        </mxCell>
        <mxCell id="aJFGZOLPX80Hbr7EHM37-26" value="圈起来的元素" style="text;html=1;align=center;verticalAlign=middle;whiteSpace=wrap;rounded=0;" vertex="1" parent="1">
          <mxGeometry x="505" y="461" width="120" height="30" as="geometry" />
        </mxCell>
        <mxCell id="aJFGZOLPX80Hbr7EHM37-27" value="&lt;b&gt;Matrix A&lt;/b&gt; 是一个 MxK 的矩阵" style="text;html=1;align=center;verticalAlign=middle;whiteSpace=wrap;rounded=0;" vertex="1" parent="1">
          <mxGeometry x="235" y="420" width="175" height="30" as="geometry" />
        </mxCell>
        <mxCell id="aJFGZOLPX80Hbr7EHM37-28" value="&lt;b&gt;Matrix B&lt;/b&gt; 是一个 KxN 的矩阵" style="text;html=1;align=center;verticalAlign=middle;whiteSpace=wrap;rounded=0;" vertex="1" parent="1">
          <mxGeometry x="408" y="420" width="175" height="30" as="geometry" />
        </mxCell>
        <mxCell id="aJFGZOLPX80Hbr7EHM37-29" value="&lt;b&gt;Matrix C&lt;/b&gt; 是一个 MxN 的矩阵" style="text;html=1;align=center;verticalAlign=middle;whiteSpace=wrap;rounded=0;" vertex="1" parent="1">
          <mxGeometry x="583" y="420" width="175" height="30" as="geometry" />
        </mxCell>
        <mxCell id="aJFGZOLPX80Hbr7EHM37-30" value="BLOCK中的数字代表程序执行的顺序,即program_id" style="text;html=1;align=center;verticalAlign=middle;whiteSpace=wrap;rounded=0;" vertex="1" parent="1">
          <mxGeometry x="209" y="491" width="335" height="30" as="geometry" />
        </mxCell>
        <mxCell id="aJFGZOLPX80Hbr7EHM37-31" value="&lt;div&gt;&lt;i&gt;&lt;b&gt;pid = [0,1,2,3,4,5,6,7,8,9....80]&lt;/b&gt;&lt;/i&gt;&lt;/div&gt;&lt;div&gt;&lt;i&gt;&lt;b&gt;pid_m = [0,1,2,0,1,2,0,1,2....2]&lt;br&gt;&lt;/b&gt;&lt;/i&gt;&lt;/div&gt;&lt;div&gt;&lt;i&gt;&lt;b&gt;pid_n = [0,0,0,1,1,1,2,2,2....2]&lt;br&gt;&lt;/b&gt;&lt;/i&gt;&lt;/div&gt;" style="text;html=1;align=center;verticalAlign=middle;whiteSpace=wrap;rounded=0;" vertex="1" parent="1">
          <mxGeometry x="700" y="421" width="325" height="70" as="geometry" />
        </mxCell>
      </root>
    </mxGraphModel>
  </diagram>
</mxfile>
